<?xml version="1.0" encoding="utf-8" standalone="no"?>
<!DOCTYPE svg PUBLIC "-//W3C//DTD SVG 1.1//EN"
  "http://www.w3.org/Graphics/SVG/1.1/DTD/svg11.dtd">
<svg xmlns:xlink="http://www.w3.org/1999/xlink" width="576pt" height="576pt" viewBox="0 0 576 576" xmlns="http://www.w3.org/2000/svg" version="1.1">
 <metadata>
  <rdf:RDF xmlns:dc="http://purl.org/dc/elements/1.1/" xmlns:cc="http://creativecommons.org/ns#" xmlns:rdf="http://www.w3.org/1999/02/22-rdf-syntax-ns#">
   <cc:Work>
    <dc:type rdf:resource="http://purl.org/dc/dcmitype/StillImage"/>
    <dc:date>2022-04-22T08:00:09.476689</dc:date>
    <dc:format>image/svg+xml</dc:format>
    <dc:creator>
     <cc:Agent>
      <dc:title>Matplotlib v3.5.1, https://matplotlib.org/</dc:title>
     </cc:Agent>
    </dc:creator>
   </cc:Work>
  </rdf:RDF>
 </metadata>
 <defs>
  <style type="text/css">*{stroke-linejoin: round; stroke-linecap: butt}</style>
 </defs>
 <g id="figure_1">
  <g id="patch_1">
   <path d="M 0 576 
L 576 576 
L 576 0 
L 0 0 
z
" style="fill: #ffffff"/>
  </g>
  <g id="axes_1">
   <g id="patch_2">
    <path d="M 72 512.64 
L 518.4 512.64 
L 518.4 69.12 
L 72 69.12 
z
" style="fill: #ffffff"/>
   </g>
   <g id="patch_3">
    <path d="M 295.2 89.28 
L 294.48152 90.524444 
L 293.044559 90.524444 
L 293.763039 91.768889 
L 293.044559 93.013333 
L 291.607598 93.013333 
L 290.889118 91.768889 
L 290.170638 93.013333 
L 288.733677 93.013333 
L 289.452157 94.257778 
L 288.733677 95.502222 
L 290.170638 95.502222 
L 290.889118 96.746667 
L 290.170638 97.991111 
L 288.733677 97.991111 
L 289.452157 99.235556 
L 288.733677 100.48 
L 287.296716 100.48 
L 286.578236 99.235556 
L 285.859756 100.48 
L 284.422795 100.48 
L 283.704315 99.235556 
L 284.422795 97.991111 
L 282.985834 97.991111 
L 282.267354 96.746667 
L 281.548874 97.991111 
L 280.111913 97.991111 
L 280.830393 99.235556 
L 280.111913 100.48 
L 278.674952 100.48 
L 277.956472 99.235556 
L 277.237992 100.48 
L 275.801031 100.48 
L 276.519511 101.724444 
L 275.801031 102.968889 
L 277.237992 102.968889 
L 277.956472 104.213333 
L 277.237992 105.457778 
L 275.801031 105.457778 
L 276.519511 106.702222 
L 275.801031 107.946667 
L 277.237992 107.946667 
L 277.956472 109.191111 
L 278.674952 107.946667 
L 280.111913 107.946667 
L 280.830393 109.191111 
L 280.111913 110.435556 
L 281.548874 110.435556 
L 282.267354 111.68 
L 281.548874 112.924444 
L 280.111913 112.924444 
L 280.830393 114.168889 
L 280.111913 115.413333 
L 278.674952 115.413333 
L 277.956472 114.168889 
L 277.237992 115.413333 
L 275.801031 115.413333 
L 276.519511 116.657778 
L 275.801031 117.902222 
L 277.237992 117.902222 
L 277.956472 119.146667 
L 277.237992 120.391111 
L 275.801031 120.391111 
L 276.519511 121.635556 
L 275.801031 122.88 
L 274.36407 122.88 
L 273.64559 121.635556 
L 272.92711 122.88 
L 271.490149 122.88 
L 270.771669 121.635556 
L 271.490149 120.391111 
L 270.053188 120.391111 
L 269.334708 119.146667 
L 268.616228 120.391111 
L 267.179267 120.391111 
L 267.897747 121.635556 
L 267.179267 122.88 
L 265.742306 122.88 
L 265.023826 121.635556 
L 264.305346 122.88 
L 262.868385 122.88 
L 262.149905 121.635556 
L 262.868385 120.391111 
L 261.431424 120.391111 
L 260.712944 119.146667 
L 261.431424 117.902222 
L 262.868385 117.902222 
L 262.149905 116.657778 
L 262.868385 115.413333 
L 261.431424 115.413333 
L 260.712944 114.168889 
L 259.994464 115.413333 
L 258.557503 115.413333 
L 257.839023 114.168889 
L 258.557503 112.924444 
L 257.120542 112.924444 
L 256.402062 111.68 
L 255.683582 112.924444 
L 254.246621 112.924444 
L 254.965101 114.168889 
L 254.246621 115.413333 
L 252.80966 115.413333 
L 252.09118 114.168889 
L 251.3727 115.413333 
L 249.935739 115.413333 
L 250.654219 116.657778 
L 249.935739 117.902222 
L 251.3727 117.902222 
L 252.09118 119.146667 
L 251.3727 120.391111 
L 249.935739 120.391111 
L 250.654219 121.635556 
L 249.935739 122.88 
L 248.498778 122.88 
L 247.780298 121.635556 
L 247.061818 122.88 
L 245.624857 122.88 
L 244.906377 121.635556 
L 245.624857 120.391111 
L 244.187896 120.391111 
L 243.469416 119.146667 
L 242.750936 120.391111 
L 241.313975 120.391111 
L 242.032455 121.635556 
L 241.313975 122.88 
L 239.877014 122.88 
L 239.158534 121.635556 
L 238.440054 122.88 
L 237.003093 122.88 
L 237.721573 124.124444 
L 237.003093 125.368889 
L 238.440054 125.368889 
L 239.158534 126.613333 
L 238.440054 127.857778 
L 237.003093 127.857778 
L 237.721573 129.102222 
L 237.003093 130.346667 
L 238.440054 130.346667 
L 239.158534 131.591111 
L 239.877014 130.346667 
L 241.313975 130.346667 
L 242.032455 131.591111 
L 241.313975 132.835556 
L 242.750936 132.835556 
L 243.469416 134.08 
L 242.750936 135.324444 
L 241.313975 135.324444 
L 242.032455 136.568889 
L 241.313975 137.813333 
L 239.877014 137.813333 
L 239.158534 136.568889 
L 238.440054 137.813333 
L 237.003093 137.813333 
L 237.721573 139.057778 
L 237.003093 140.302222 
L 238.440054 140.302222 
L 239.158534 141.546667 
L 238.440054 142.791111 
L 237.003093 142.791111 
L 237.721573 144.035556 
L 237.003093 145.28 
L 238.440054 145.28 
L 239.158534 146.524444 
L 239.877014 145.28 
L 241.313975 145.28 
L 242.032455 146.524444 
L 241.313975 147.768889 
L 242.750936 147.768889 
L 243.469416 149.013333 
L 244.187896 147.768889 
L 245.624857 147.768889 
L 244.906377 146.524444 
L 245.624857 145.28 
L 247.061818 145.28 
L 247.780298 146.524444 
L 248.498778 145.28 
L 249.935739 145.28 
L 250.654219 146.524444 
L 249.935739 147.768889 
L 251.3727 147.768889 
L 252.09118 149.013333 
L 251.3727 150.257778 
L 249.935739 150.257778 
L 250.654219 151.502222 
L 249.935739 152.746667 
L 251.3727 152.746667 
L 252.09118 153.991111 
L 252.80966 152.746667 
L 254.246621 152.746667 
L 254.965101 153.991111 
L 254.246621 155.235556 
L 255.683582 155.235556 
L 256.402062 156.48 
L 255.683582 157.724444 
L 254.246621 157.724444 
L 254.965101 158.968889 
L 254.246621 160.213333 
L 252.80966 160.213333 
L 252.09118 158.968889 
L 251.3727 160.213333 
L 249.935739 160.213333 
L 250.654219 161.457778 
L 249.935739 162.702222 
L 251.3727 162.702222 
L 252.09118 163.946667 
L 251.3727 165.191111 
L 249.935739 165.191111 
L 250.654219 166.435556 
L 249.935739 167.68 
L 248.498778 167.68 
L 247.780298 166.435556 
L 247.061818 167.68 
L 245.624857 167.68 
L 244.906377 166.435556 
L 245.624857 165.191111 
L 244.187896 165.191111 
L 243.469416 163.946667 
L 242.750936 165.191111 
L 241.313975 165.191111 
L 242.032455 166.435556 
L 241.313975 167.68 
L 239.877014 167.68 
L 239.158534 166.435556 
L 238.440054 167.68 
L 237.003093 167.68 
L 237.721573 168.924444 
L 237.003093 170.168889 
L 238.440054 170.168889 
L 239.158534 171.413333 
L 238.440054 172.657778 
L 237.003093 172.657778 
L 237.721573 173.902222 
L 237.003093 175.146667 
L 238.440054 175.146667 
L 239.158534 176.391111 
L 239.877014 175.146667 
L 241.313975 175.146667 
L 242.032455 176.391111 
L 241.313975 177.635556 
L 242.750936 177.635556 
L 243.469416 178.88 
L 242.750936 180.124444 
L 241.313975 180.124444 
L 242.032455 181.368889 
L 241.313975 182.613333 
L 239.877014 182.613333 
L 239.158534 181.368889 
L 238.440054 182.613333 
L 237.003093 182.613333 
L 237.721573 183.857778 
L 237.003093 185.102222 
L 238.440054 185.102222 
L 239.158534 186.346667 
L 238.440054 187.591111 
L 237.003093 187.591111 
L 237.721573 188.835556 
L 237.003093 190.08 
L 235.566132 190.08 
L 234.847652 188.835556 
L 234.129172 190.08 
L 232.692211 190.08 
L 231.973731 188.835556 
L 232.692211 187.591111 
L 231.25525 187.591111 
L 230.53677 186.346667 
L 229.81829 187.591111 
L 228.381329 187.591111 
L 229.099809 188.835556 
L 228.381329 190.08 
L 226.944368 190.08 
L 226.225888 188.835556 
L 225.507408 190.08 
L 224.070447 190.08 
L 223.351967 188.835556 
L 224.070447 187.591111 
L 222.633486 187.591111 
L 221.915006 186.346667 
L 222.633486 185.102222 
L 224.070447 185.102222 
L 223.351967 183.857778 
L 224.070447 182.613333 
L 222.633486 182.613333 
L 221.915006 181.368889 
L 221.196525 182.613333 
L 219.759565 182.613333 
L 219.041084 181.368889 
L 219.759565 180.124444 
L 218.322604 180.124444 
L 217.604124 178.88 
L 216.885643 180.124444 
L 215.448683 180.124444 
L 216.167163 181.368889 
L 215.448683 182.613333 
L 214.011722 182.613333 
L 213.293242 181.368889 
L 212.574761 182.613333 
L 211.137801 182.613333 
L 211.856281 183.857778 
L 211.137801 185.102222 
L 212.574761 185.102222 
L 213.293242 186.346667 
L 212.574761 187.591111 
L 211.137801 187.591111 
L 211.856281 188.835556 
L 211.137801 190.08 
L 209.70084 190.08 
L 208.98236 188.835556 
L 208.263879 190.08 
L 206.826919 190.08 
L 206.108438 188.835556 
L 206.826919 187.591111 
L 205.389958 187.591111 
L 204.671478 186.346667 
L 203.952997 187.591111 
L 202.516037 187.591111 
L 203.234517 188.835556 
L 202.516037 190.08 
L 201.079076 190.08 
L 200.360596 188.835556 
L 199.642115 190.08 
L 198.205155 190.08 
L 197.486674 188.835556 
L 198.205155 187.591111 
L 196.768194 187.591111 
L 196.049714 186.346667 
L 196.768194 185.102222 
L 198.205155 185.102222 
L 197.486674 183.857778 
L 198.205155 182.613333 
L 196.768194 182.613333 
L 196.049714 181.368889 
L 195.331233 182.613333 
L 193.894273 182.613333 
L 193.175792 181.368889 
L 193.894273 180.124444 
L 192.457312 180.124444 
L 191.738832 178.88 
L 192.457312 177.635556 
L 193.894273 177.635556 
L 193.175792 176.391111 
L 193.894273 175.146667 
L 195.331233 175.146667 
L 196.049714 176.391111 
L 196.768194 175.146667 
L 198.205155 175.146667 
L 197.486674 173.902222 
L 198.205155 172.657778 
L 196.768194 172.657778 
L 196.049714 171.413333 
L 196.768194 170.168889 
L 198.205155 170.168889 
L 197.486674 168.924444 
L 198.205155 167.68 
L 196.768194 167.68 
L 196.049714 166.435556 
L 195.331233 167.68 
L 193.894273 167.68 
L 193.175792 166.435556 
L 193.894273 165.191111 
L 192.457312 165.191111 
L 191.738832 163.946667 
L 191.020351 165.191111 
L 189.583391 165.191111 
L 190.301871 166.435556 
L 189.583391 167.68 
L 188.14643 167.68 
L 187.42795 166.435556 
L 186.709469 167.68 
L 185.272509 167.68 
L 184.554028 166.435556 
L 185.272509 165.191111 
L 183.835548 165.191111 
L 183.117068 163.946667 
L 183.835548 162.702222 
L 185.272509 162.702222 
L 184.554028 161.457778 
L 185.272509 160.213333 
L 183.835548 160.213333 
L 183.117068 158.968889 
L 182.398587 160.213333 
L 180.961627 160.213333 
L 180.243146 158.968889 
L 180.961627 157.724444 
L 179.524666 157.724444 
L 178.806186 156.48 
L 178.087705 157.724444 
L 176.650745 157.724444 
L 177.369225 158.968889 
L 176.650745 160.213333 
L 175.213784 160.213333 
L 174.495304 158.968889 
L 173.776823 160.213333 
L 172.339863 160.213333 
L 173.058343 161.457778 
L 172.339863 162.702222 
L 173.776823 162.702222 
L 174.495304 163.946667 
L 173.776823 165.191111 
L 172.339863 165.191111 
L 173.058343 166.435556 
L 172.339863 167.68 
L 170.902902 167.68 
L 170.184422 166.435556 
L 169.465941 167.68 
L 168.028981 167.68 
L 167.3105 166.435556 
L 168.028981 165.191111 
L 166.59202 165.191111 
L 165.87354 163.946667 
L 165.155059 165.191111 
L 163.718099 165.191111 
L 164.436579 166.435556 
L 163.718099 167.68 
L 162.281138 167.68 
L 161.562658 166.435556 
L 160.844177 167.68 
L 159.407217 167.68 
L 160.125697 168.924444 
L 159.407217 170.168889 
L 160.844177 170.168889 
L 161.562658 171.413333 
L 160.844177 172.657778 
L 159.407217 172.657778 
L 160.125697 173.902222 
L 159.407217 175.146667 
L 160.844177 175.146667 
L 161.562658 176.391111 
L 162.281138 175.146667 
L 163.718099 175.146667 
L 164.436579 176.391111 
L 163.718099 177.635556 
L 165.155059 177.635556 
L 165.87354 178.88 
L 165.155059 180.124444 
L 163.718099 180.124444 
L 164.436579 181.368889 
L 163.718099 182.613333 
L 162.281138 182.613333 
L 161.562658 181.368889 
L 160.844177 182.613333 
L 159.407217 182.613333 
L 160.125697 183.857778 
L 159.407217 185.102222 
L 160.844177 185.102222 
L 161.562658 186.346667 
L 160.844177 187.591111 
L 159.407217 187.591111 
L 160.125697 188.835556 
L 159.407217 190.08 
L 157.970256 190.08 
L 157.251776 188.835556 
L 156.533295 190.08 
L 155.096335 190.08 
L 154.377854 188.835556 
L 155.096335 187.591111 
L 153.659374 187.591111 
L 152.940894 186.346667 
L 152.222413 187.591111 
L 150.785453 187.591111 
L 151.503933 188.835556 
L 150.785453 190.08 
L 149.348492 190.08 
L 148.630012 188.835556 
L 147.911531 190.08 
L 146.474571 190.08 
L 145.75609 188.835556 
L 146.474571 187.591111 
L 145.03761 187.591111 
L 144.31913 186.346667 
L 145.03761 185.102222 
L 146.474571 185.102222 
L 145.75609 183.857778 
L 146.474571 182.613333 
L 145.03761 182.613333 
L 144.31913 181.368889 
L 143.600649 182.613333 
L 142.163689 182.613333 
L 141.445208 181.368889 
L 142.163689 180.124444 
L 140.726728 180.124444 
L 140.008248 178.88 
L 139.289767 180.124444 
L 137.852807 180.124444 
L 138.571287 181.368889 
L 137.852807 182.613333 
L 136.415846 182.613333 
L 135.697366 181.368889 
L 134.978885 182.613333 
L 133.541925 182.613333 
L 134.260405 183.857778 
L 133.541925 185.102222 
L 134.978885 185.102222 
L 135.697366 186.346667 
L 134.978885 187.591111 
L 133.541925 187.591111 
L 134.260405 188.835556 
L 133.541925 190.08 
L 132.104964 190.08 
L 131.386484 188.835556 
L 130.668003 190.08 
L 129.231043 190.08 
L 128.512562 188.835556 
L 129.231043 187.591111 
L 127.794082 187.591111 
L 127.075602 186.346667 
L 126.357121 187.591111 
L 124.920161 187.591111 
L 125.638641 188.835556 
L 124.920161 190.08 
L 123.4832 190.08 
L 122.76472 188.835556 
L 122.046239 190.08 
L 120.609279 190.08 
L 121.327759 191.324444 
L 120.609279 192.568889 
L 122.046239 192.568889 
L 122.76472 193.813333 
L 122.046239 195.057778 
L 120.609279 195.057778 
L 121.327759 196.302222 
L 120.609279 197.546667 
L 122.046239 197.546667 
L 122.76472 198.791111 
L 123.4832 197.546667 
L 124.920161 197.546667 
L 125.638641 198.791111 
L 124.920161 200.035556 
L 126.357121 200.035556 
L 127.075602 201.28 
L 126.357121 202.524444 
L 124.920161 202.524444 
L 125.638641 203.768889 
L 124.920161 205.013333 
L 123.4832 205.013333 
L 122.76472 203.768889 
L 122.046239 205.013333 
L 120.609279 205.013333 
L 121.327759 206.257778 
L 120.609279 207.502222 
L 122.046239 207.502222 
L 122.76472 208.746667 
L 122.046239 209.991111 
L 120.609279 209.991111 
L 121.327759 211.235556 
L 120.609279 212.48 
L 122.046239 212.48 
L 122.76472 213.724444 
L 123.4832 212.48 
L 124.920161 212.48 
L 125.638641 213.724444 
L 124.920161 214.968889 
L 126.357121 214.968889 
L 127.075602 216.213333 
L 127.794082 214.968889 
L 129.231043 214.968889 
L 128.512562 213.724444 
L 129.231043 212.48 
L 130.668003 212.48 
L 131.386484 213.724444 
L 132.104964 212.48 
L 133.541925 212.48 
L 134.260405 213.724444 
L 133.541925 214.968889 
L 134.978885 214.968889 
L 135.697366 216.213333 
L 134.978885 217.457778 
L 133.541925 217.457778 
L 134.260405 218.702222 
L 133.541925 219.946667 
L 134.978885 219.946667 
L 135.697366 221.191111 
L 136.415846 219.946667 
L 137.852807 219.946667 
L 138.571287 221.191111 
L 137.852807 222.435556 
L 139.289767 222.435556 
L 140.008248 223.68 
L 139.289767 224.924444 
L 137.852807 224.924444 
L 138.571287 226.168889 
L 137.852807 227.413333 
L 136.415846 227.413333 
L 135.697366 226.168889 
L 134.978885 227.413333 
L 133.541925 227.413333 
L 134.260405 228.657778 
L 133.541925 229.902222 
L 134.978885 229.902222 
L 135.697366 231.146667 
L 134.978885 232.391111 
L 133.541925 232.391111 
L 134.260405 233.635556 
L 133.541925 234.88 
L 132.104964 234.88 
L 131.386484 233.635556 
L 130.668003 234.88 
L 129.231043 234.88 
L 128.512562 233.635556 
L 129.231043 232.391111 
L 127.794082 232.391111 
L 127.075602 231.146667 
L 126.357121 232.391111 
L 124.920161 232.391111 
L 125.638641 233.635556 
L 124.920161 234.88 
L 123.4832 234.88 
L 122.76472 233.635556 
L 122.046239 234.88 
L 120.609279 234.88 
L 121.327759 236.124444 
L 120.609279 237.368889 
L 122.046239 237.368889 
L 122.76472 238.613333 
L 122.046239 239.857778 
L 120.609279 239.857778 
L 121.327759 241.102222 
L 120.609279 242.346667 
L 122.046239 242.346667 
L 122.76472 243.591111 
L 123.4832 242.346667 
L 124.920161 242.346667 
L 125.638641 243.591111 
L 124.920161 244.835556 
L 126.357121 244.835556 
L 127.075602 246.08 
L 126.357121 247.324444 
L 124.920161 247.324444 
L 125.638641 248.568889 
L 124.920161 249.813333 
L 123.4832 249.813333 
L 122.76472 248.568889 
L 122.046239 249.813333 
L 120.609279 249.813333 
L 121.327759 251.057778 
L 120.609279 252.302222 
L 122.046239 252.302222 
L 122.76472 253.546667 
L 122.046239 254.791111 
L 120.609279 254.791111 
L 121.327759 256.035556 
L 120.609279 257.28 
L 122.046239 257.28 
L 122.76472 258.524444 
L 123.4832 257.28 
L 124.920161 257.28 
L 125.638641 258.524444 
L 124.920161 259.768889 
L 126.357121 259.768889 
L 127.075602 261.013333 
L 127.794082 259.768889 
L 129.231043 259.768889 
L 128.512562 258.524444 
L 129.231043 257.28 
L 130.668003 257.28 
L 131.386484 258.524444 
L 132.104964 257.28 
L 133.541925 257.28 
L 134.260405 258.524444 
L 133.541925 259.768889 
L 134.978885 259.768889 
L 135.697366 261.013333 
L 134.978885 262.257778 
L 133.541925 262.257778 
L 134.260405 263.502222 
L 133.541925 264.746667 
L 134.978885 264.746667 
L 135.697366 265.991111 
L 136.415846 264.746667 
L 137.852807 264.746667 
L 138.571287 265.991111 
L 137.852807 267.235556 
L 139.289767 267.235556 
L 140.008248 268.48 
L 140.726728 267.235556 
L 142.163689 267.235556 
L 141.445208 265.991111 
L 142.163689 264.746667 
L 143.600649 264.746667 
L 144.31913 265.991111 
L 145.03761 264.746667 
L 146.474571 264.746667 
L 145.75609 263.502222 
L 146.474571 262.257778 
L 145.03761 262.257778 
L 144.31913 261.013333 
L 145.03761 259.768889 
L 146.474571 259.768889 
L 145.75609 258.524444 
L 146.474571 257.28 
L 147.911531 257.28 
L 148.630012 258.524444 
L 149.348492 257.28 
L 150.785453 257.28 
L 151.503933 258.524444 
L 150.785453 259.768889 
L 152.222413 259.768889 
L 152.940894 261.013333 
L 153.659374 259.768889 
L 155.096335 259.768889 
L 154.377854 258.524444 
L 155.096335 257.28 
L 156.533295 257.28 
L 157.251776 258.524444 
L 157.970256 257.28 
L 159.407217 257.28 
L 160.125697 258.524444 
L 159.407217 259.768889 
L 160.844177 259.768889 
L 161.562658 261.013333 
L 160.844177 262.257778 
L 159.407217 262.257778 
L 160.125697 263.502222 
L 159.407217 264.746667 
L 160.844177 264.746667 
L 161.562658 265.991111 
L 162.281138 264.746667 
L 163.718099 264.746667 
L 164.436579 265.991111 
L 163.718099 267.235556 
L 165.155059 267.235556 
L 165.87354 268.48 
L 165.155059 269.724444 
L 163.718099 269.724444 
L 164.436579 270.968889 
L 163.718099 272.213333 
L 162.281138 272.213333 
L 161.562658 270.968889 
L 160.844177 272.213333 
L 159.407217 272.213333 
L 160.125697 273.457778 
L 159.407217 274.702222 
L 160.844177 274.702222 
L 161.562658 275.946667 
L 160.844177 277.191111 
L 159.407217 277.191111 
L 160.125697 278.435556 
L 159.407217 279.68 
L 160.844177 279.68 
L 161.562658 280.924444 
L 162.281138 279.68 
L 163.718099 279.68 
L 164.436579 280.924444 
L 163.718099 282.168889 
L 165.155059 282.168889 
L 165.87354 283.413333 
L 166.59202 282.168889 
L 168.028981 282.168889 
L 167.3105 280.924444 
L 168.028981 279.68 
L 169.465941 279.68 
L 170.184422 280.924444 
L 170.902902 279.68 
L 172.339863 279.68 
L 173.058343 280.924444 
L 172.339863 282.168889 
L 173.776823 282.168889 
L 174.495304 283.413333 
L 173.776823 284.657778 
L 172.339863 284.657778 
L 173.058343 285.902222 
L 172.339863 287.146667 
L 173.776823 287.146667 
L 174.495304 288.391111 
L 175.213784 287.146667 
L 176.650745 287.146667 
L 177.369225 288.391111 
L 176.650745 289.635556 
L 178.087705 289.635556 
L 178.806186 290.88 
L 178.087705 292.124444 
L 176.650745 292.124444 
L 177.369225 293.368889 
L 176.650745 294.613333 
L 175.213784 294.613333 
L 174.495304 293.368889 
L 173.776823 294.613333 
L 172.339863 294.613333 
L 173.058343 295.857778 
L 172.339863 297.102222 
L 173.776823 297.102222 
L 174.495304 298.346667 
L 173.776823 299.591111 
L 172.339863 299.591111 
L 173.058343 300.835556 
L 172.339863 302.08 
L 170.902902 302.08 
L 170.184422 300.835556 
L 169.465941 302.08 
L 168.028981 302.08 
L 167.3105 300.835556 
L 168.028981 299.591111 
L 166.59202 299.591111 
L 165.87354 298.346667 
L 165.155059 299.591111 
L 163.718099 299.591111 
L 164.436579 300.835556 
L 163.718099 302.08 
L 162.281138 302.08 
L 161.562658 300.835556 
L 160.844177 302.08 
L 159.407217 302.08 
L 160.125697 303.324444 
L 159.407217 304.568889 
L 160.844177 304.568889 
L 161.562658 305.813333 
L 160.844177 307.057778 
L 159.407217 307.057778 
L 160.125697 308.302222 
L 159.407217 309.546667 
L 160.844177 309.546667 
L 161.562658 310.791111 
L 162.281138 309.546667 
L 163.718099 309.546667 
L 164.436579 310.791111 
L 163.718099 312.035556 
L 165.155059 312.035556 
L 165.87354 313.28 
L 165.155059 314.524444 
L 163.718099 314.524444 
L 164.436579 315.768889 
L 163.718099 317.013333 
L 162.281138 317.013333 
L 161.562658 315.768889 
L 160.844177 317.013333 
L 159.407217 317.013333 
L 160.125697 318.257778 
L 159.407217 319.502222 
L 160.844177 319.502222 
L 161.562658 320.746667 
L 160.844177 321.991111 
L 159.407217 321.991111 
L 160.125697 323.235556 
L 159.407217 324.48 
L 157.970256 324.48 
L 157.251776 323.235556 
L 156.533295 324.48 
L 155.096335 324.48 
L 154.377854 323.235556 
L 155.096335 321.991111 
L 153.659374 321.991111 
L 152.940894 320.746667 
L 152.222413 321.991111 
L 150.785453 321.991111 
L 151.503933 323.235556 
L 150.785453 324.48 
L 149.348492 324.48 
L 148.630012 323.235556 
L 147.911531 324.48 
L 146.474571 324.48 
L 145.75609 323.235556 
L 146.474571 321.991111 
L 145.03761 321.991111 
L 144.31913 320.746667 
L 145.03761 319.502222 
L 146.474571 319.502222 
L 145.75609 318.257778 
L 146.474571 317.013333 
L 145.03761 317.013333 
L 144.31913 315.768889 
L 143.600649 317.013333 
L 142.163689 317.013333 
L 141.445208 315.768889 
L 142.163689 314.524444 
L 140.726728 314.524444 
L 140.008248 313.28 
L 139.289767 314.524444 
L 137.852807 314.524444 
L 138.571287 315.768889 
L 137.852807 317.013333 
L 136.415846 317.013333 
L 135.697366 315.768889 
L 134.978885 317.013333 
L 133.541925 317.013333 
L 134.260405 318.257778 
L 133.541925 319.502222 
L 134.978885 319.502222 
L 135.697366 320.746667 
L 134.978885 321.991111 
L 133.541925 321.991111 
L 134.260405 323.235556 
L 133.541925 324.48 
L 132.104964 324.48 
L 131.386484 323.235556 
L 130.668003 324.48 
L 129.231043 324.48 
L 128.512562 323.235556 
L 129.231043 321.991111 
L 127.794082 321.991111 
L 127.075602 320.746667 
L 126.357121 321.991111 
L 124.920161 321.991111 
L 125.638641 323.235556 
L 124.920161 324.48 
L 123.4832 324.48 
L 122.76472 323.235556 
L 122.046239 324.48 
L 120.609279 324.48 
L 121.327759 325.724444 
L 120.609279 326.968889 
L 122.046239 326.968889 
L 122.76472 328.213333 
L 122.046239 329.457778 
L 120.609279 329.457778 
L 121.327759 330.702222 
L 120.609279 331.946667 
L 122.046239 331.946667 
L 122.76472 333.191111 
L 123.4832 331.946667 
L 124.920161 331.946667 
L 125.638641 333.191111 
L 124.920161 334.435556 
L 126.357121 334.435556 
L 127.075602 335.68 
L 126.357121 336.924444 
L 124.920161 336.924444 
L 125.638641 338.168889 
L 124.920161 339.413333 
L 123.4832 339.413333 
L 122.76472 338.168889 
L 122.046239 339.413333 
L 120.609279 339.413333 
L 121.327759 340.657778 
L 120.609279 341.902222 
L 122.046239 341.902222 
L 122.76472 343.146667 
L 122.046239 344.391111 
L 120.609279 344.391111 
L 121.327759 345.635556 
L 120.609279 346.88 
L 122.046239 346.88 
L 122.76472 348.124444 
L 123.4832 346.88 
L 124.920161 346.88 
L 125.638641 348.124444 
L 124.920161 349.368889 
L 126.357121 349.368889 
L 127.075602 350.613333 
L 127.794082 349.368889 
L 129.231043 349.368889 
L 128.512562 348.124444 
L 129.231043 346.88 
L 130.668003 346.88 
L 131.386484 348.124444 
L 132.104964 346.88 
L 133.541925 346.88 
L 134.260405 348.124444 
L 133.541925 349.368889 
L 134.978885 349.368889 
L 135.697366 350.613333 
L 134.978885 351.857778 
L 133.541925 351.857778 
L 134.260405 353.102222 
L 133.541925 354.346667 
L 134.978885 354.346667 
L 135.697366 355.591111 
L 136.415846 354.346667 
L 137.852807 354.346667 
L 138.571287 355.591111 
L 137.852807 356.835556 
L 139.289767 356.835556 
L 140.008248 358.08 
L 139.289767 359.324444 
L 137.852807 359.324444 
L 138.571287 360.568889 
L 137.852807 361.813333 
L 136.415846 361.813333 
L 135.697366 360.568889 
L 134.978885 361.813333 
L 133.541925 361.813333 
L 134.260405 363.057778 
L 133.541925 364.302222 
L 134.978885 364.302222 
L 135.697366 365.546667 
L 134.978885 366.791111 
L 133.541925 366.791111 
L 134.260405 368.035556 
L 133.541925 369.28 
L 132.104964 369.28 
L 131.386484 368.035556 
L 130.668003 369.28 
L 129.231043 369.28 
L 128.512562 368.035556 
L 129.231043 366.791111 
L 127.794082 366.791111 
L 127.075602 365.546667 
L 126.357121 366.791111 
L 124.920161 366.791111 
L 125.638641 368.035556 
L 124.920161 369.28 
L 123.4832 369.28 
L 122.76472 368.035556 
L 122.046239 369.28 
L 120.609279 369.28 
L 121.327759 370.524444 
L 120.609279 371.768889 
L 122.046239 371.768889 
L 122.76472 373.013333 
L 122.046239 374.257778 
L 120.609279 374.257778 
L 121.327759 375.502222 
L 120.609279 376.746667 
L 122.046239 376.746667 
L 122.76472 377.991111 
L 123.4832 376.746667 
L 124.920161 376.746667 
L 125.638641 377.991111 
L 124.920161 379.235556 
L 126.357121 379.235556 
L 127.075602 380.48 
L 126.357121 381.724444 
L 124.920161 381.724444 
L 125.638641 382.968889 
L 124.920161 384.213333 
L 123.4832 384.213333 
L 122.76472 382.968889 
L 122.046239 384.213333 
L 120.609279 384.213333 
L 121.327759 385.457778 
L 120.609279 386.702222 
L 122.046239 386.702222 
L 122.76472 387.946667 
L 122.046239 389.191111 
L 120.609279 389.191111 
L 121.327759 390.435556 
L 120.609279 391.68 
L 122.046239 391.68 
L 122.76472 392.924444 
L 123.4832 391.68 
L 124.920161 391.68 
L 125.638641 392.924444 
L 124.920161 394.168889 
L 126.357121 394.168889 
L 127.075602 395.413333 
L 127.794082 394.168889 
L 129.231043 394.168889 
L 128.512562 392.924444 
L 129.231043 391.68 
L 130.668003 391.68 
L 131.386484 392.924444 
L 132.104964 391.68 
L 133.541925 391.68 
L 134.260405 392.924444 
L 133.541925 394.168889 
L 134.978885 394.168889 
L 135.697366 395.413333 
L 134.978885 396.657778 
L 133.541925 396.657778 
L 134.260405 397.902222 
L 133.541925 399.146667 
L 134.978885 399.146667 
L 135.697366 400.391111 
L 136.415846 399.146667 
L 137.852807 399.146667 
L 138.571287 400.391111 
L 137.852807 401.635556 
L 139.289767 401.635556 
L 140.008248 402.88 
L 140.726728 401.635556 
L 142.163689 401.635556 
L 141.445208 400.391111 
L 142.163689 399.146667 
L 143.600649 399.146667 
L 144.31913 400.391111 
L 145.03761 399.146667 
L 146.474571 399.146667 
L 145.75609 397.902222 
L 146.474571 396.657778 
L 145.03761 396.657778 
L 144.31913 395.413333 
L 145.03761 394.168889 
L 146.474571 394.168889 
L 145.75609 392.924444 
L 146.474571 391.68 
L 147.911531 391.68 
L 148.630012 392.924444 
L 149.348492 391.68 
L 150.785453 391.68 
L 151.503933 392.924444 
L 150.785453 394.168889 
L 152.222413 394.168889 
L 152.940894 395.413333 
L 153.659374 394.168889 
L 155.096335 394.168889 
L 154.377854 392.924444 
L 155.096335 391.68 
L 156.533295 391.68 
L 157.251776 392.924444 
L 157.970256 391.68 
L 159.407217 391.68 
L 160.125697 392.924444 
L 159.407217 394.168889 
L 160.844177 394.168889 
L 161.562658 395.413333 
L 160.844177 396.657778 
L 159.407217 396.657778 
L 160.125697 397.902222 
L 159.407217 399.146667 
L 160.844177 399.146667 
L 161.562658 400.391111 
L 162.281138 399.146667 
L 163.718099 399.146667 
L 164.436579 400.391111 
L 163.718099 401.635556 
L 165.155059 401.635556 
L 165.87354 402.88 
L 165.155059 404.124444 
L 163.718099 404.124444 
L 164.436579 405.368889 
L 163.718099 406.613333 
L 162.281138 406.613333 
L 161.562658 405.368889 
L 160.844177 406.613333 
L 159.407217 406.613333 
L 160.125697 407.857778 
L 159.407217 409.102222 
L 160.844177 409.102222 
L 161.562658 410.346667 
L 160.844177 411.591111 
L 159.407217 411.591111 
L 160.125697 412.835556 
L 159.407217 414.08 
L 160.844177 414.08 
L 161.562658 415.324444 
L 162.281138 414.08 
L 163.718099 414.08 
L 164.436579 415.324444 
L 163.718099 416.568889 
L 165.155059 416.568889 
L 165.87354 417.813333 
L 166.59202 416.568889 
L 168.028981 416.568889 
L 167.3105 415.324444 
L 168.028981 414.08 
L 169.465941 414.08 
L 170.184422 415.324444 
L 170.902902 414.08 
L 172.339863 414.08 
L 173.058343 415.324444 
L 172.339863 416.568889 
L 173.776823 416.568889 
L 174.495304 417.813333 
L 173.776823 419.057778 
L 172.339863 419.057778 
L 173.058343 420.302222 
L 172.339863 421.546667 
L 173.776823 421.546667 
L 174.495304 422.791111 
L 175.213784 421.546667 
L 176.650745 421.546667 
L 177.369225 422.791111 
L 176.650745 424.035556 
L 178.087705 424.035556 
L 178.806186 425.28 
L 179.524666 424.035556 
L 180.961627 424.035556 
L 180.243146 422.791111 
L 180.961627 421.546667 
L 182.398587 421.546667 
L 183.117068 422.791111 
L 183.835548 421.546667 
L 185.272509 421.546667 
L 184.554028 420.302222 
L 185.272509 419.057778 
L 183.835548 419.057778 
L 183.117068 417.813333 
L 183.835548 416.568889 
L 185.272509 416.568889 
L 184.554028 415.324444 
L 185.272509 414.08 
L 186.709469 414.08 
L 187.42795 415.324444 
L 188.14643 414.08 
L 189.583391 414.08 
L 190.301871 415.324444 
L 189.583391 416.568889 
L 191.020351 416.568889 
L 191.738832 417.813333 
L 192.457312 416.568889 
L 193.894273 416.568889 
L 193.175792 415.324444 
L 193.894273 414.08 
L 195.331233 414.08 
L 196.049714 415.324444 
L 196.768194 414.08 
L 198.205155 414.08 
L 197.486674 412.835556 
L 198.205155 411.591111 
L 196.768194 411.591111 
L 196.049714 410.346667 
L 196.768194 409.102222 
L 198.205155 409.102222 
L 197.486674 407.857778 
L 198.205155 406.613333 
L 196.768194 406.613333 
L 196.049714 405.368889 
L 195.331233 406.613333 
L 193.894273 406.613333 
L 193.175792 405.368889 
L 193.894273 404.124444 
L 192.457312 404.124444 
L 191.738832 402.88 
L 192.457312 401.635556 
L 193.894273 401.635556 
L 193.175792 400.391111 
L 193.894273 399.146667 
L 195.331233 399.146667 
L 196.049714 400.391111 
L 196.768194 399.146667 
L 198.205155 399.146667 
L 197.486674 397.902222 
L 198.205155 396.657778 
L 196.768194 396.657778 
L 196.049714 395.413333 
L 196.768194 394.168889 
L 198.205155 394.168889 
L 197.486674 392.924444 
L 198.205155 391.68 
L 199.642115 391.68 
L 200.360596 392.924444 
L 201.079076 391.68 
L 202.516037 391.68 
L 203.234517 392.924444 
L 202.516037 394.168889 
L 203.952997 394.168889 
L 204.671478 395.413333 
L 205.389958 394.168889 
L 206.826919 394.168889 
L 206.108438 392.924444 
L 206.826919 391.68 
L 208.263879 391.68 
L 208.98236 392.924444 
L 209.70084 391.68 
L 211.137801 391.68 
L 211.856281 392.924444 
L 211.137801 394.168889 
L 212.574761 394.168889 
L 213.293242 395.413333 
L 212.574761 396.657778 
L 211.137801 396.657778 
L 211.856281 397.902222 
L 211.137801 399.146667 
L 212.574761 399.146667 
L 213.293242 400.391111 
L 214.011722 399.146667 
L 215.448683 399.146667 
L 216.167163 400.391111 
L 215.448683 401.635556 
L 216.885643 401.635556 
L 217.604124 402.88 
L 218.322604 401.635556 
L 219.759565 401.635556 
L 219.041084 400.391111 
L 219.759565 399.146667 
L 221.196525 399.146667 
L 221.915006 400.391111 
L 222.633486 399.146667 
L 224.070447 399.146667 
L 223.351967 397.902222 
L 224.070447 396.657778 
L 222.633486 396.657778 
L 221.915006 395.413333 
L 222.633486 394.168889 
L 224.070447 394.168889 
L 223.351967 392.924444 
L 224.070447 391.68 
L 225.507408 391.68 
L 226.225888 392.924444 
L 226.944368 391.68 
L 228.381329 391.68 
L 229.099809 392.924444 
L 228.381329 394.168889 
L 229.81829 394.168889 
L 230.53677 395.413333 
L 231.25525 394.168889 
L 232.692211 394.168889 
L 231.973731 392.924444 
L 232.692211 391.68 
L 234.129172 391.68 
L 234.847652 392.924444 
L 235.566132 391.68 
L 237.003093 391.68 
L 237.721573 392.924444 
L 237.003093 394.168889 
L 238.440054 394.168889 
L 239.158534 395.413333 
L 238.440054 396.657778 
L 237.003093 396.657778 
L 237.721573 397.902222 
L 237.003093 399.146667 
L 238.440054 399.146667 
L 239.158534 400.391111 
L 239.877014 399.146667 
L 241.313975 399.146667 
L 242.032455 400.391111 
L 241.313975 401.635556 
L 242.750936 401.635556 
L 243.469416 402.88 
L 242.750936 404.124444 
L 241.313975 404.124444 
L 242.032455 405.368889 
L 241.313975 406.613333 
L 239.877014 406.613333 
L 239.158534 405.368889 
L 238.440054 406.613333 
L 237.003093 406.613333 
L 237.721573 407.857778 
L 237.003093 409.102222 
L 238.440054 409.102222 
L 239.158534 410.346667 
L 238.440054 411.591111 
L 237.003093 411.591111 
L 237.721573 412.835556 
L 237.003093 414.08 
L 238.440054 414.08 
L 239.158534 415.324444 
L 239.877014 414.08 
L 241.313975 414.08 
L 242.032455 415.324444 
L 241.313975 416.568889 
L 242.750936 416.568889 
L 243.469416 417.813333 
L 244.187896 416.568889 
L 245.624857 416.568889 
L 244.906377 415.324444 
L 245.624857 414.08 
L 247.061818 414.08 
L 247.780298 415.324444 
L 248.498778 414.08 
L 249.935739 414.08 
L 250.654219 415.324444 
L 249.935739 416.568889 
L 251.3727 416.568889 
L 252.09118 417.813333 
L 251.3727 419.057778 
L 249.935739 419.057778 
L 250.654219 420.302222 
L 249.935739 421.546667 
L 251.3727 421.546667 
L 252.09118 422.791111 
L 252.80966 421.546667 
L 254.246621 421.546667 
L 254.965101 422.791111 
L 254.246621 424.035556 
L 255.683582 424.035556 
L 256.402062 425.28 
L 255.683582 426.524444 
L 254.246621 426.524444 
L 254.965101 427.768889 
L 254.246621 429.013333 
L 252.80966 429.013333 
L 252.09118 427.768889 
L 251.3727 429.013333 
L 249.935739 429.013333 
L 250.654219 430.257778 
L 249.935739 431.502222 
L 251.3727 431.502222 
L 252.09118 432.746667 
L 251.3727 433.991111 
L 249.935739 433.991111 
L 250.654219 435.235556 
L 249.935739 436.48 
L 248.498778 436.48 
L 247.780298 435.235556 
L 247.061818 436.48 
L 245.624857 436.48 
L 244.906377 435.235556 
L 245.624857 433.991111 
L 244.187896 433.991111 
L 243.469416 432.746667 
L 242.750936 433.991111 
L 241.313975 433.991111 
L 242.032455 435.235556 
L 241.313975 436.48 
L 239.877014 436.48 
L 239.158534 435.235556 
L 238.440054 436.48 
L 237.003093 436.48 
L 237.721573 437.724444 
L 237.003093 438.968889 
L 238.440054 438.968889 
L 239.158534 440.213333 
L 238.440054 441.457778 
L 237.003093 441.457778 
L 237.721573 442.702222 
L 237.003093 443.946667 
L 238.440054 443.946667 
L 239.158534 445.191111 
L 239.877014 443.946667 
L 241.313975 443.946667 
L 242.032455 445.191111 
L 241.313975 446.435556 
L 242.750936 446.435556 
L 243.469416 447.68 
L 242.750936 448.924444 
L 241.313975 448.924444 
L 242.032455 450.168889 
L 241.313975 451.413333 
L 239.877014 451.413333 
L 239.158534 450.168889 
L 238.440054 451.413333 
L 237.003093 451.413333 
L 237.721573 452.657778 
L 237.003093 453.902222 
L 238.440054 453.902222 
L 239.158534 455.146667 
L 238.440054 456.391111 
L 237.003093 456.391111 
L 237.721573 457.635556 
L 237.003093 458.88 
L 238.440054 458.88 
L 239.158534 460.124444 
L 239.877014 458.88 
L 241.313975 458.88 
L 242.032455 460.124444 
L 241.313975 461.368889 
L 242.750936 461.368889 
L 243.469416 462.613333 
L 244.187896 461.368889 
L 245.624857 461.368889 
L 244.906377 460.124444 
L 245.624857 458.88 
L 247.061818 458.88 
L 247.780298 460.124444 
L 248.498778 458.88 
L 249.935739 458.88 
L 250.654219 460.124444 
L 249.935739 461.368889 
L 251.3727 461.368889 
L 252.09118 462.613333 
L 251.3727 463.857778 
L 249.935739 463.857778 
L 250.654219 465.102222 
L 249.935739 466.346667 
L 251.3727 466.346667 
L 252.09118 467.591111 
L 252.80966 466.346667 
L 254.246621 466.346667 
L 254.965101 467.591111 
L 254.246621 468.835556 
L 255.683582 468.835556 
L 256.402062 470.08 
L 257.120542 468.835556 
L 258.557503 468.835556 
L 257.839023 467.591111 
L 258.557503 466.346667 
L 259.994464 466.346667 
L 260.712944 467.591111 
L 261.431424 466.346667 
L 262.868385 466.346667 
L 262.149905 465.102222 
L 262.868385 463.857778 
L 261.431424 463.857778 
L 260.712944 462.613333 
L 261.431424 461.368889 
L 262.868385 461.368889 
L 262.149905 460.124444 
L 262.868385 458.88 
L 264.305346 458.88 
L 265.023826 460.124444 
L 265.742306 458.88 
L 267.179267 458.88 
L 267.897747 460.124444 
L 267.179267 461.368889 
L 268.616228 461.368889 
L 269.334708 462.613333 
L 270.053188 461.368889 
L 271.490149 461.368889 
L 270.771669 460.124444 
L 271.490149 458.88 
L 272.92711 458.88 
L 273.64559 460.124444 
L 274.36407 458.88 
L 275.801031 458.88 
L 276.519511 460.124444 
L 275.801031 461.368889 
L 277.237992 461.368889 
L 277.956472 462.613333 
L 277.237992 463.857778 
L 275.801031 463.857778 
L 276.519511 465.102222 
L 275.801031 466.346667 
L 277.237992 466.346667 
L 277.956472 467.591111 
L 278.674952 466.346667 
L 280.111913 466.346667 
L 280.830393 467.591111 
L 280.111913 468.835556 
L 281.548874 468.835556 
L 282.267354 470.08 
L 281.548874 471.324444 
L 280.111913 471.324444 
L 280.830393 472.568889 
L 280.111913 473.813333 
L 278.674952 473.813333 
L 277.956472 472.568889 
L 277.237992 473.813333 
L 275.801031 473.813333 
L 276.519511 475.057778 
L 275.801031 476.302222 
L 277.237992 476.302222 
L 277.956472 477.546667 
L 277.237992 478.791111 
L 275.801031 478.791111 
L 276.519511 480.035556 
L 275.801031 481.28 
L 277.237992 481.28 
L 277.956472 482.524444 
L 278.674952 481.28 
L 280.111913 481.28 
L 280.830393 482.524444 
L 280.111913 483.768889 
L 281.548874 483.768889 
L 282.267354 485.013333 
L 282.985834 483.768889 
L 284.422795 483.768889 
L 283.704315 482.524444 
L 284.422795 481.28 
L 285.859756 481.28 
L 286.578236 482.524444 
L 287.296716 481.28 
L 288.733677 481.28 
L 289.452157 482.524444 
L 288.733677 483.768889 
L 290.170638 483.768889 
L 290.889118 485.013333 
L 290.170638 486.257778 
L 288.733677 486.257778 
L 289.452157 487.502222 
L 288.733677 488.746667 
L 290.170638 488.746667 
L 290.889118 489.991111 
L 291.607598 488.746667 
L 293.044559 488.746667 
L 293.763039 489.991111 
L 293.044559 491.235556 
L 294.48152 491.235556 
L 295.2 492.48 
L 295.91848 491.235556 
L 297.355441 491.235556 
L 296.636961 489.991111 
L 297.355441 488.746667 
L 298.792402 488.746667 
L 299.510882 489.991111 
L 300.229362 488.746667 
L 301.666323 488.746667 
L 300.947843 487.502222 
L 301.666323 486.257778 
L 300.229362 486.257778 
L 299.510882 485.013333 
L 300.229362 483.768889 
L 301.666323 483.768889 
L 300.947843 482.524444 
L 301.666323 481.28 
L 303.103284 481.28 
L 303.821764 482.524444 
L 304.540244 481.28 
L 305.977205 481.28 
L 306.695685 482.524444 
L 305.977205 483.768889 
L 307.414166 483.768889 
L 308.132646 485.013333 
L 308.851126 483.768889 
L 310.288087 483.768889 
L 309.569607 482.524444 
L 310.288087 481.28 
L 311.725048 481.28 
L 312.443528 482.524444 
L 313.162008 481.28 
L 314.598969 481.28 
L 313.880489 480.035556 
L 314.598969 478.791111 
L 313.162008 478.791111 
L 312.443528 477.546667 
L 313.162008 476.302222 
L 314.598969 476.302222 
L 313.880489 475.057778 
L 314.598969 473.813333 
L 313.162008 473.813333 
L 312.443528 472.568889 
L 311.725048 473.813333 
L 310.288087 473.813333 
L 309.569607 472.568889 
L 310.288087 471.324444 
L 308.851126 471.324444 
L 308.132646 470.08 
L 308.851126 468.835556 
L 310.288087 468.835556 
L 309.569607 467.591111 
L 310.288087 466.346667 
L 311.725048 466.346667 
L 312.443528 467.591111 
L 313.162008 466.346667 
L 314.598969 466.346667 
L 313.880489 465.102222 
L 314.598969 463.857778 
L 313.162008 463.857778 
L 312.443528 462.613333 
L 313.162008 461.368889 
L 314.598969 461.368889 
L 313.880489 460.124444 
L 314.598969 458.88 
L 316.03593 458.88 
L 316.75441 460.124444 
L 317.47289 458.88 
L 318.909851 458.88 
L 319.628331 460.124444 
L 318.909851 461.368889 
L 320.346812 461.368889 
L 321.065292 462.613333 
L 321.783772 461.368889 
L 323.220733 461.368889 
L 322.502253 460.124444 
L 323.220733 458.88 
L 324.657694 458.88 
L 325.376174 460.124444 
L 326.094654 458.88 
L 327.531615 458.88 
L 328.250095 460.124444 
L 327.531615 461.368889 
L 328.968576 461.368889 
L 329.687056 462.613333 
L 328.968576 463.857778 
L 327.531615 463.857778 
L 328.250095 465.102222 
L 327.531615 466.346667 
L 328.968576 466.346667 
L 329.687056 467.591111 
L 330.405536 466.346667 
L 331.842497 466.346667 
L 332.560977 467.591111 
L 331.842497 468.835556 
L 333.279458 468.835556 
L 333.997938 470.08 
L 334.716418 468.835556 
L 336.153379 468.835556 
L 335.434899 467.591111 
L 336.153379 466.346667 
L 337.59034 466.346667 
L 338.30882 467.591111 
L 339.0273 466.346667 
L 340.464261 466.346667 
L 339.745781 465.102222 
L 340.464261 463.857778 
L 339.0273 463.857778 
L 338.30882 462.613333 
L 339.0273 461.368889 
L 340.464261 461.368889 
L 339.745781 460.124444 
L 340.464261 458.88 
L 341.901222 458.88 
L 342.619702 460.124444 
L 343.338182 458.88 
L 344.775143 458.88 
L 345.493623 460.124444 
L 344.775143 461.368889 
L 346.212104 461.368889 
L 346.930584 462.613333 
L 347.649064 461.368889 
L 349.086025 461.368889 
L 348.367545 460.124444 
L 349.086025 458.88 
L 350.522986 458.88 
L 351.241466 460.124444 
L 351.959946 458.88 
L 353.396907 458.88 
L 352.678427 457.635556 
L 353.396907 456.391111 
L 351.959946 456.391111 
L 351.241466 455.146667 
L 351.959946 453.902222 
L 353.396907 453.902222 
L 352.678427 452.657778 
L 353.396907 451.413333 
L 351.959946 451.413333 
L 351.241466 450.168889 
L 350.522986 451.413333 
L 349.086025 451.413333 
L 348.367545 450.168889 
L 349.086025 448.924444 
L 347.649064 448.924444 
L 346.930584 447.68 
L 347.649064 446.435556 
L 349.086025 446.435556 
L 348.367545 445.191111 
L 349.086025 443.946667 
L 350.522986 443.946667 
L 351.241466 445.191111 
L 351.959946 443.946667 
L 353.396907 443.946667 
L 352.678427 442.702222 
L 353.396907 441.457778 
L 351.959946 441.457778 
L 351.241466 440.213333 
L 351.959946 438.968889 
L 353.396907 438.968889 
L 352.678427 437.724444 
L 353.396907 436.48 
L 351.959946 436.48 
L 351.241466 435.235556 
L 350.522986 436.48 
L 349.086025 436.48 
L 348.367545 435.235556 
L 349.086025 433.991111 
L 347.649064 433.991111 
L 346.930584 432.746667 
L 346.212104 433.991111 
L 344.775143 433.991111 
L 345.493623 435.235556 
L 344.775143 436.48 
L 343.338182 436.48 
L 342.619702 435.235556 
L 341.901222 436.48 
L 340.464261 436.48 
L 339.745781 435.235556 
L 340.464261 433.991111 
L 339.0273 433.991111 
L 338.30882 432.746667 
L 339.0273 431.502222 
L 340.464261 431.502222 
L 339.745781 430.257778 
L 340.464261 429.013333 
L 339.0273 429.013333 
L 338.30882 427.768889 
L 337.59034 429.013333 
L 336.153379 429.013333 
L 335.434899 427.768889 
L 336.153379 426.524444 
L 334.716418 426.524444 
L 333.997938 425.28 
L 334.716418 424.035556 
L 336.153379 424.035556 
L 335.434899 422.791111 
L 336.153379 421.546667 
L 337.59034 421.546667 
L 338.30882 422.791111 
L 339.0273 421.546667 
L 340.464261 421.546667 
L 339.745781 420.302222 
L 340.464261 419.057778 
L 339.0273 419.057778 
L 338.30882 417.813333 
L 339.0273 416.568889 
L 340.464261 416.568889 
L 339.745781 415.324444 
L 340.464261 414.08 
L 341.901222 414.08 
L 342.619702 415.324444 
L 343.338182 414.08 
L 344.775143 414.08 
L 345.493623 415.324444 
L 344.775143 416.568889 
L 346.212104 416.568889 
L 346.930584 417.813333 
L 347.649064 416.568889 
L 349.086025 416.568889 
L 348.367545 415.324444 
L 349.086025 414.08 
L 350.522986 414.08 
L 351.241466 415.324444 
L 351.959946 414.08 
L 353.396907 414.08 
L 352.678427 412.835556 
L 353.396907 411.591111 
L 351.959946 411.591111 
L 351.241466 410.346667 
L 351.959946 409.102222 
L 353.396907 409.102222 
L 352.678427 407.857778 
L 353.396907 406.613333 
L 351.959946 406.613333 
L 351.241466 405.368889 
L 350.522986 406.613333 
L 349.086025 406.613333 
L 348.367545 405.368889 
L 349.086025 404.124444 
L 347.649064 404.124444 
L 346.930584 402.88 
L 347.649064 401.635556 
L 349.086025 401.635556 
L 348.367545 400.391111 
L 349.086025 399.146667 
L 350.522986 399.146667 
L 351.241466 400.391111 
L 351.959946 399.146667 
L 353.396907 399.146667 
L 352.678427 397.902222 
L 353.396907 396.657778 
L 351.959946 396.657778 
L 351.241466 395.413333 
L 351.959946 394.168889 
L 353.396907 394.168889 
L 352.678427 392.924444 
L 353.396907 391.68 
L 354.833868 391.68 
L 355.552348 392.924444 
L 356.270828 391.68 
L 357.707789 391.68 
L 358.426269 392.924444 
L 357.707789 394.168889 
L 359.14475 394.168889 
L 359.86323 395.413333 
L 360.58171 394.168889 
L 362.018671 394.168889 
L 361.300191 392.924444 
L 362.018671 391.68 
L 363.455632 391.68 
L 364.174112 392.924444 
L 364.892592 391.68 
L 366.329553 391.68 
L 367.048033 392.924444 
L 366.329553 394.168889 
L 367.766514 394.168889 
L 368.484994 395.413333 
L 367.766514 396.657778 
L 366.329553 396.657778 
L 367.048033 397.902222 
L 366.329553 399.146667 
L 367.766514 399.146667 
L 368.484994 400.391111 
L 369.203475 399.146667 
L 370.640435 399.146667 
L 371.358916 400.391111 
L 370.640435 401.635556 
L 372.077396 401.635556 
L 372.795876 402.88 
L 373.514357 401.635556 
L 374.951317 401.635556 
L 374.232837 400.391111 
L 374.951317 399.146667 
L 376.388278 399.146667 
L 377.106758 400.391111 
L 377.825239 399.146667 
L 379.262199 399.146667 
L 378.543719 397.902222 
L 379.262199 396.657778 
L 377.825239 396.657778 
L 377.106758 395.413333 
L 377.825239 394.168889 
L 379.262199 394.168889 
L 378.543719 392.924444 
L 379.262199 391.68 
L 380.69916 391.68 
L 381.41764 392.924444 
L 382.136121 391.68 
L 383.573081 391.68 
L 384.291562 392.924444 
L 383.573081 394.168889 
L 385.010042 394.168889 
L 385.728522 395.413333 
L 386.447003 394.168889 
L 387.883963 394.168889 
L 387.165483 392.924444 
L 387.883963 391.68 
L 389.320924 391.68 
L 390.039404 392.924444 
L 390.757885 391.68 
L 392.194845 391.68 
L 392.913326 392.924444 
L 392.194845 394.168889 
L 393.631806 394.168889 
L 394.350286 395.413333 
L 393.631806 396.657778 
L 392.194845 396.657778 
L 392.913326 397.902222 
L 392.194845 399.146667 
L 393.631806 399.146667 
L 394.350286 400.391111 
L 395.068767 399.146667 
L 396.505727 399.146667 
L 397.224208 400.391111 
L 396.505727 401.635556 
L 397.942688 401.635556 
L 398.661168 402.88 
L 397.942688 404.124444 
L 396.505727 404.124444 
L 397.224208 405.368889 
L 396.505727 406.613333 
L 395.068767 406.613333 
L 394.350286 405.368889 
L 393.631806 406.613333 
L 392.194845 406.613333 
L 392.913326 407.857778 
L 392.194845 409.102222 
L 393.631806 409.102222 
L 394.350286 410.346667 
L 393.631806 411.591111 
L 392.194845 411.591111 
L 392.913326 412.835556 
L 392.194845 414.08 
L 393.631806 414.08 
L 394.350286 415.324444 
L 395.068767 414.08 
L 396.505727 414.08 
L 397.224208 415.324444 
L 396.505727 416.568889 
L 397.942688 416.568889 
L 398.661168 417.813333 
L 399.379649 416.568889 
L 400.816609 416.568889 
L 400.098129 415.324444 
L 400.816609 414.08 
L 402.25357 414.08 
L 402.97205 415.324444 
L 403.690531 414.08 
L 405.127491 414.08 
L 405.845972 415.324444 
L 405.127491 416.568889 
L 406.564452 416.568889 
L 407.282932 417.813333 
L 406.564452 419.057778 
L 405.127491 419.057778 
L 405.845972 420.302222 
L 405.127491 421.546667 
L 406.564452 421.546667 
L 407.282932 422.791111 
L 408.001413 421.546667 
L 409.438373 421.546667 
L 410.156854 422.791111 
L 409.438373 424.035556 
L 410.875334 424.035556 
L 411.593814 425.28 
L 412.312295 424.035556 
L 413.749255 424.035556 
L 413.030775 422.791111 
L 413.749255 421.546667 
L 415.186216 421.546667 
L 415.904696 422.791111 
L 416.623177 421.546667 
L 418.060137 421.546667 
L 417.341657 420.302222 
L 418.060137 419.057778 
L 416.623177 419.057778 
L 415.904696 417.813333 
L 416.623177 416.568889 
L 418.060137 416.568889 
L 417.341657 415.324444 
L 418.060137 414.08 
L 419.497098 414.08 
L 420.215578 415.324444 
L 420.934059 414.08 
L 422.371019 414.08 
L 423.0895 415.324444 
L 422.371019 416.568889 
L 423.80798 416.568889 
L 424.52646 417.813333 
L 425.244941 416.568889 
L 426.681901 416.568889 
L 425.963421 415.324444 
L 426.681901 414.08 
L 428.118862 414.08 
L 428.837342 415.324444 
L 429.555823 414.08 
L 430.992783 414.08 
L 430.274303 412.835556 
L 430.992783 411.591111 
L 429.555823 411.591111 
L 428.837342 410.346667 
L 429.555823 409.102222 
L 430.992783 409.102222 
L 430.274303 407.857778 
L 430.992783 406.613333 
L 429.555823 406.613333 
L 428.837342 405.368889 
L 428.118862 406.613333 
L 426.681901 406.613333 
L 425.963421 405.368889 
L 426.681901 404.124444 
L 425.244941 404.124444 
L 424.52646 402.88 
L 425.244941 401.635556 
L 426.681901 401.635556 
L 425.963421 400.391111 
L 426.681901 399.146667 
L 428.118862 399.146667 
L 428.837342 400.391111 
L 429.555823 399.146667 
L 430.992783 399.146667 
L 430.274303 397.902222 
L 430.992783 396.657778 
L 429.555823 396.657778 
L 428.837342 395.413333 
L 429.555823 394.168889 
L 430.992783 394.168889 
L 430.274303 392.924444 
L 430.992783 391.68 
L 432.429744 391.68 
L 433.148224 392.924444 
L 433.866705 391.68 
L 435.303665 391.68 
L 436.022146 392.924444 
L 435.303665 394.168889 
L 436.740626 394.168889 
L 437.459106 395.413333 
L 438.177587 394.168889 
L 439.614547 394.168889 
L 438.896067 392.924444 
L 439.614547 391.68 
L 441.051508 391.68 
L 441.769988 392.924444 
L 442.488469 391.68 
L 443.925429 391.68 
L 444.64391 392.924444 
L 443.925429 394.168889 
L 445.36239 394.168889 
L 446.08087 395.413333 
L 445.36239 396.657778 
L 443.925429 396.657778 
L 444.64391 397.902222 
L 443.925429 399.146667 
L 445.36239 399.146667 
L 446.08087 400.391111 
L 446.799351 399.146667 
L 448.236311 399.146667 
L 448.954792 400.391111 
L 448.236311 401.635556 
L 449.673272 401.635556 
L 450.391752 402.88 
L 451.110233 401.635556 
L 452.547193 401.635556 
L 451.828713 400.391111 
L 452.547193 399.146667 
L 453.984154 399.146667 
L 454.702634 400.391111 
L 455.421115 399.146667 
L 456.858075 399.146667 
L 456.139595 397.902222 
L 456.858075 396.657778 
L 455.421115 396.657778 
L 454.702634 395.413333 
L 455.421115 394.168889 
L 456.858075 394.168889 
L 456.139595 392.924444 
L 456.858075 391.68 
L 458.295036 391.68 
L 459.013516 392.924444 
L 459.731997 391.68 
L 461.168957 391.68 
L 461.887438 392.924444 
L 461.168957 394.168889 
L 462.605918 394.168889 
L 463.324398 395.413333 
L 464.042879 394.168889 
L 465.479839 394.168889 
L 464.761359 392.924444 
L 465.479839 391.68 
L 466.9168 391.68 
L 467.63528 392.924444 
L 468.353761 391.68 
L 469.790721 391.68 
L 469.072241 390.435556 
L 469.790721 389.191111 
L 468.353761 389.191111 
L 467.63528 387.946667 
L 468.353761 386.702222 
L 469.790721 386.702222 
L 469.072241 385.457778 
L 469.790721 384.213333 
L 468.353761 384.213333 
L 467.63528 382.968889 
L 466.9168 384.213333 
L 465.479839 384.213333 
L 464.761359 382.968889 
L 465.479839 381.724444 
L 464.042879 381.724444 
L 463.324398 380.48 
L 464.042879 379.235556 
L 465.479839 379.235556 
L 464.761359 377.991111 
L 465.479839 376.746667 
L 466.9168 376.746667 
L 467.63528 377.991111 
L 468.353761 376.746667 
L 469.790721 376.746667 
L 469.072241 375.502222 
L 469.790721 374.257778 
L 468.353761 374.257778 
L 467.63528 373.013333 
L 468.353761 371.768889 
L 469.790721 371.768889 
L 469.072241 370.524444 
L 469.790721 369.28 
L 468.353761 369.28 
L 467.63528 368.035556 
L 466.9168 369.28 
L 465.479839 369.28 
L 464.761359 368.035556 
L 465.479839 366.791111 
L 464.042879 366.791111 
L 463.324398 365.546667 
L 462.605918 366.791111 
L 461.168957 366.791111 
L 461.887438 368.035556 
L 461.168957 369.28 
L 459.731997 369.28 
L 459.013516 368.035556 
L 458.295036 369.28 
L 456.858075 369.28 
L 456.139595 368.035556 
L 456.858075 366.791111 
L 455.421115 366.791111 
L 454.702634 365.546667 
L 455.421115 364.302222 
L 456.858075 364.302222 
L 456.139595 363.057778 
L 456.858075 361.813333 
L 455.421115 361.813333 
L 454.702634 360.568889 
L 453.984154 361.813333 
L 452.547193 361.813333 
L 451.828713 360.568889 
L 452.547193 359.324444 
L 451.110233 359.324444 
L 450.391752 358.08 
L 451.110233 356.835556 
L 452.547193 356.835556 
L 451.828713 355.591111 
L 452.547193 354.346667 
L 453.984154 354.346667 
L 454.702634 355.591111 
L 455.421115 354.346667 
L 456.858075 354.346667 
L 456.139595 353.102222 
L 456.858075 351.857778 
L 455.421115 351.857778 
L 454.702634 350.613333 
L 455.421115 349.368889 
L 456.858075 349.368889 
L 456.139595 348.124444 
L 456.858075 346.88 
L 458.295036 346.88 
L 459.013516 348.124444 
L 459.731997 346.88 
L 461.168957 346.88 
L 461.887438 348.124444 
L 461.168957 349.368889 
L 462.605918 349.368889 
L 463.324398 350.613333 
L 464.042879 349.368889 
L 465.479839 349.368889 
L 464.761359 348.124444 
L 465.479839 346.88 
L 466.9168 346.88 
L 467.63528 348.124444 
L 468.353761 346.88 
L 469.790721 346.88 
L 469.072241 345.635556 
L 469.790721 344.391111 
L 468.353761 344.391111 
L 467.63528 343.146667 
L 468.353761 341.902222 
L 469.790721 341.902222 
L 469.072241 340.657778 
L 469.790721 339.413333 
L 468.353761 339.413333 
L 467.63528 338.168889 
L 466.9168 339.413333 
L 465.479839 339.413333 
L 464.761359 338.168889 
L 465.479839 336.924444 
L 464.042879 336.924444 
L 463.324398 335.68 
L 464.042879 334.435556 
L 465.479839 334.435556 
L 464.761359 333.191111 
L 465.479839 331.946667 
L 466.9168 331.946667 
L 467.63528 333.191111 
L 468.353761 331.946667 
L 469.790721 331.946667 
L 469.072241 330.702222 
L 469.790721 329.457778 
L 468.353761 329.457778 
L 467.63528 328.213333 
L 468.353761 326.968889 
L 469.790721 326.968889 
L 469.072241 325.724444 
L 469.790721 324.48 
L 468.353761 324.48 
L 467.63528 323.235556 
L 466.9168 324.48 
L 465.479839 324.48 
L 464.761359 323.235556 
L 465.479839 321.991111 
L 464.042879 321.991111 
L 463.324398 320.746667 
L 462.605918 321.991111 
L 461.168957 321.991111 
L 461.887438 323.235556 
L 461.168957 324.48 
L 459.731997 324.48 
L 459.013516 323.235556 
L 458.295036 324.48 
L 456.858075 324.48 
L 456.139595 323.235556 
L 456.858075 321.991111 
L 455.421115 321.991111 
L 454.702634 320.746667 
L 455.421115 319.502222 
L 456.858075 319.502222 
L 456.139595 318.257778 
L 456.858075 317.013333 
L 455.421115 317.013333 
L 454.702634 315.768889 
L 453.984154 317.013333 
L 452.547193 317.013333 
L 451.828713 315.768889 
L 452.547193 314.524444 
L 451.110233 314.524444 
L 450.391752 313.28 
L 449.673272 314.524444 
L 448.236311 314.524444 
L 448.954792 315.768889 
L 448.236311 317.013333 
L 446.799351 317.013333 
L 446.08087 315.768889 
L 445.36239 317.013333 
L 443.925429 317.013333 
L 444.64391 318.257778 
L 443.925429 319.502222 
L 445.36239 319.502222 
L 446.08087 320.746667 
L 445.36239 321.991111 
L 443.925429 321.991111 
L 444.64391 323.235556 
L 443.925429 324.48 
L 442.488469 324.48 
L 441.769988 323.235556 
L 441.051508 324.48 
L 439.614547 324.48 
L 438.896067 323.235556 
L 439.614547 321.991111 
L 438.177587 321.991111 
L 437.459106 320.746667 
L 436.740626 321.991111 
L 435.303665 321.991111 
L 436.022146 323.235556 
L 435.303665 324.48 
L 433.866705 324.48 
L 433.148224 323.235556 
L 432.429744 324.48 
L 430.992783 324.48 
L 430.274303 323.235556 
L 430.992783 321.991111 
L 429.555823 321.991111 
L 428.837342 320.746667 
L 429.555823 319.502222 
L 430.992783 319.502222 
L 430.274303 318.257778 
L 430.992783 317.013333 
L 429.555823 317.013333 
L 428.837342 315.768889 
L 428.118862 317.013333 
L 426.681901 317.013333 
L 425.963421 315.768889 
L 426.681901 314.524444 
L 425.244941 314.524444 
L 424.52646 313.28 
L 425.244941 312.035556 
L 426.681901 312.035556 
L 425.963421 310.791111 
L 426.681901 309.546667 
L 428.118862 309.546667 
L 428.837342 310.791111 
L 429.555823 309.546667 
L 430.992783 309.546667 
L 430.274303 308.302222 
L 430.992783 307.057778 
L 429.555823 307.057778 
L 428.837342 305.813333 
L 429.555823 304.568889 
L 430.992783 304.568889 
L 430.274303 303.324444 
L 430.992783 302.08 
L 429.555823 302.08 
L 428.837342 300.835556 
L 428.118862 302.08 
L 426.681901 302.08 
L 425.963421 300.835556 
L 426.681901 299.591111 
L 425.244941 299.591111 
L 424.52646 298.346667 
L 423.80798 299.591111 
L 422.371019 299.591111 
L 423.0895 300.835556 
L 422.371019 302.08 
L 420.934059 302.08 
L 420.215578 300.835556 
L 419.497098 302.08 
L 418.060137 302.08 
L 417.341657 300.835556 
L 418.060137 299.591111 
L 416.623177 299.591111 
L 415.904696 298.346667 
L 416.623177 297.102222 
L 418.060137 297.102222 
L 417.341657 295.857778 
L 418.060137 294.613333 
L 416.623177 294.613333 
L 415.904696 293.368889 
L 415.186216 294.613333 
L 413.749255 294.613333 
L 413.030775 293.368889 
L 413.749255 292.124444 
L 412.312295 292.124444 
L 411.593814 290.88 
L 412.312295 289.635556 
L 413.749255 289.635556 
L 413.030775 288.391111 
L 413.749255 287.146667 
L 415.186216 287.146667 
L 415.904696 288.391111 
L 416.623177 287.146667 
L 418.060137 287.146667 
L 417.341657 285.902222 
L 418.060137 284.657778 
L 416.623177 284.657778 
L 415.904696 283.413333 
L 416.623177 282.168889 
L 418.060137 282.168889 
L 417.341657 280.924444 
L 418.060137 279.68 
L 419.497098 279.68 
L 420.215578 280.924444 
L 420.934059 279.68 
L 422.371019 279.68 
L 423.0895 280.924444 
L 422.371019 282.168889 
L 423.80798 282.168889 
L 424.52646 283.413333 
L 425.244941 282.168889 
L 426.681901 282.168889 
L 425.963421 280.924444 
L 426.681901 279.68 
L 428.118862 279.68 
L 428.837342 280.924444 
L 429.555823 279.68 
L 430.992783 279.68 
L 430.274303 278.435556 
L 430.992783 277.191111 
L 429.555823 277.191111 
L 428.837342 275.946667 
L 429.555823 274.702222 
L 430.992783 274.702222 
L 430.274303 273.457778 
L 430.992783 272.213333 
L 429.555823 272.213333 
L 428.837342 270.968889 
L 428.118862 272.213333 
L 426.681901 272.213333 
L 425.963421 270.968889 
L 426.681901 269.724444 
L 425.244941 269.724444 
L 424.52646 268.48 
L 425.244941 267.235556 
L 426.681901 267.235556 
L 425.963421 265.991111 
L 426.681901 264.746667 
L 428.118862 264.746667 
L 428.837342 265.991111 
L 429.555823 264.746667 
L 430.992783 264.746667 
L 430.274303 263.502222 
L 430.992783 262.257778 
L 429.555823 262.257778 
L 428.837342 261.013333 
L 429.555823 259.768889 
L 430.992783 259.768889 
L 430.274303 258.524444 
L 430.992783 257.28 
L 432.429744 257.28 
L 433.148224 258.524444 
L 433.866705 257.28 
L 435.303665 257.28 
L 436.022146 258.524444 
L 435.303665 259.768889 
L 436.740626 259.768889 
L 437.459106 261.013333 
L 438.177587 259.768889 
L 439.614547 259.768889 
L 438.896067 258.524444 
L 439.614547 257.28 
L 441.051508 257.28 
L 441.769988 258.524444 
L 442.488469 257.28 
L 443.925429 257.28 
L 444.64391 258.524444 
L 443.925429 259.768889 
L 445.36239 259.768889 
L 446.08087 261.013333 
L 445.36239 262.257778 
L 443.925429 262.257778 
L 444.64391 263.502222 
L 443.925429 264.746667 
L 445.36239 264.746667 
L 446.08087 265.991111 
L 446.799351 264.746667 
L 448.236311 264.746667 
L 448.954792 265.991111 
L 448.236311 267.235556 
L 449.673272 267.235556 
L 450.391752 268.48 
L 451.110233 267.235556 
L 452.547193 267.235556 
L 451.828713 265.991111 
L 452.547193 264.746667 
L 453.984154 264.746667 
L 454.702634 265.991111 
L 455.421115 264.746667 
L 456.858075 264.746667 
L 456.139595 263.502222 
L 456.858075 262.257778 
L 455.421115 262.257778 
L 454.702634 261.013333 
L 455.421115 259.768889 
L 456.858075 259.768889 
L 456.139595 258.524444 
L 456.858075 257.28 
L 458.295036 257.28 
L 459.013516 258.524444 
L 459.731997 257.28 
L 461.168957 257.28 
L 461.887438 258.524444 
L 461.168957 259.768889 
L 462.605918 259.768889 
L 463.324398 261.013333 
L 464.042879 259.768889 
L 465.479839 259.768889 
L 464.761359 258.524444 
L 465.479839 257.28 
L 466.9168 257.28 
L 467.63528 258.524444 
L 468.353761 257.28 
L 469.790721 257.28 
L 469.072241 256.035556 
L 469.790721 254.791111 
L 468.353761 254.791111 
L 467.63528 253.546667 
L 468.353761 252.302222 
L 469.790721 252.302222 
L 469.072241 251.057778 
L 469.790721 249.813333 
L 468.353761 249.813333 
L 467.63528 248.568889 
L 466.9168 249.813333 
L 465.479839 249.813333 
L 464.761359 248.568889 
L 465.479839 247.324444 
L 464.042879 247.324444 
L 463.324398 246.08 
L 464.042879 244.835556 
L 465.479839 244.835556 
L 464.761359 243.591111 
L 465.479839 242.346667 
L 466.9168 242.346667 
L 467.63528 243.591111 
L 468.353761 242.346667 
L 469.790721 242.346667 
L 469.072241 241.102222 
L 469.790721 239.857778 
L 468.353761 239.857778 
L 467.63528 238.613333 
L 468.353761 237.368889 
L 469.790721 237.368889 
L 469.072241 236.124444 
L 469.790721 234.88 
L 468.353761 234.88 
L 467.63528 233.635556 
L 466.9168 234.88 
L 465.479839 234.88 
L 464.761359 233.635556 
L 465.479839 232.391111 
L 464.042879 232.391111 
L 463.324398 231.146667 
L 462.605918 232.391111 
L 461.168957 232.391111 
L 461.887438 233.635556 
L 461.168957 234.88 
L 459.731997 234.88 
L 459.013516 233.635556 
L 458.295036 234.88 
L 456.858075 234.88 
L 456.139595 233.635556 
L 456.858075 232.391111 
L 455.421115 232.391111 
L 454.702634 231.146667 
L 455.421115 229.902222 
L 456.858075 229.902222 
L 456.139595 228.657778 
L 456.858075 227.413333 
L 455.421115 227.413333 
L 454.702634 226.168889 
L 453.984154 227.413333 
L 452.547193 227.413333 
L 451.828713 226.168889 
L 452.547193 224.924444 
L 451.110233 224.924444 
L 450.391752 223.68 
L 451.110233 222.435556 
L 452.547193 222.435556 
L 451.828713 221.191111 
L 452.547193 219.946667 
L 453.984154 219.946667 
L 454.702634 221.191111 
L 455.421115 219.946667 
L 456.858075 219.946667 
L 456.139595 218.702222 
L 456.858075 217.457778 
L 455.421115 217.457778 
L 454.702634 216.213333 
L 455.421115 214.968889 
L 456.858075 214.968889 
L 456.139595 213.724444 
L 456.858075 212.48 
L 458.295036 212.48 
L 459.013516 213.724444 
L 459.731997 212.48 
L 461.168957 212.48 
L 461.887438 213.724444 
L 461.168957 214.968889 
L 462.605918 214.968889 
L 463.324398 216.213333 
L 464.042879 214.968889 
L 465.479839 214.968889 
L 464.761359 213.724444 
L 465.479839 212.48 
L 466.9168 212.48 
L 467.63528 213.724444 
L 468.353761 212.48 
L 469.790721 212.48 
L 469.072241 211.235556 
L 469.790721 209.991111 
L 468.353761 209.991111 
L 467.63528 208.746667 
L 468.353761 207.502222 
L 469.790721 207.502222 
L 469.072241 206.257778 
L 469.790721 205.013333 
L 468.353761 205.013333 
L 467.63528 203.768889 
L 466.9168 205.013333 
L 465.479839 205.013333 
L 464.761359 203.768889 
L 465.479839 202.524444 
L 464.042879 202.524444 
L 463.324398 201.28 
L 464.042879 200.035556 
L 465.479839 200.035556 
L 464.761359 198.791111 
L 465.479839 197.546667 
L 466.9168 197.546667 
L 467.63528 198.791111 
L 468.353761 197.546667 
L 469.790721 197.546667 
L 469.072241 196.302222 
L 469.790721 195.057778 
L 468.353761 195.057778 
L 467.63528 193.813333 
L 468.353761 192.568889 
L 469.790721 192.568889 
L 469.072241 191.324444 
L 469.790721 190.08 
L 468.353761 190.08 
L 467.63528 188.835556 
L 466.9168 190.08 
L 465.479839 190.08 
L 464.761359 188.835556 
L 465.479839 187.591111 
L 464.042879 187.591111 
L 463.324398 186.346667 
L 462.605918 187.591111 
L 461.168957 187.591111 
L 461.887438 188.835556 
L 461.168957 190.08 
L 459.731997 190.08 
L 459.013516 188.835556 
L 458.295036 190.08 
L 456.858075 190.08 
L 456.139595 188.835556 
L 456.858075 187.591111 
L 455.421115 187.591111 
L 454.702634 186.346667 
L 455.421115 185.102222 
L 456.858075 185.102222 
L 456.139595 183.857778 
L 456.858075 182.613333 
L 455.421115 182.613333 
L 454.702634 181.368889 
L 453.984154 182.613333 
L 452.547193 182.613333 
L 451.828713 181.368889 
L 452.547193 180.124444 
L 451.110233 180.124444 
L 450.391752 178.88 
L 449.673272 180.124444 
L 448.236311 180.124444 
L 448.954792 181.368889 
L 448.236311 182.613333 
L 446.799351 182.613333 
L 446.08087 181.368889 
L 445.36239 182.613333 
L 443.925429 182.613333 
L 444.64391 183.857778 
L 443.925429 185.102222 
L 445.36239 185.102222 
L 446.08087 186.346667 
L 445.36239 187.591111 
L 443.925429 187.591111 
L 444.64391 188.835556 
L 443.925429 190.08 
L 442.488469 190.08 
L 441.769988 188.835556 
L 441.051508 190.08 
L 439.614547 190.08 
L 438.896067 188.835556 
L 439.614547 187.591111 
L 438.177587 187.591111 
L 437.459106 186.346667 
L 436.740626 187.591111 
L 435.303665 187.591111 
L 436.022146 188.835556 
L 435.303665 190.08 
L 433.866705 190.08 
L 433.148224 188.835556 
L 432.429744 190.08 
L 430.992783 190.08 
L 430.274303 188.835556 
L 430.992783 187.591111 
L 429.555823 187.591111 
L 428.837342 186.346667 
L 429.555823 185.102222 
L 430.992783 185.102222 
L 430.274303 183.857778 
L 430.992783 182.613333 
L 429.555823 182.613333 
L 428.837342 181.368889 
L 428.118862 182.613333 
L 426.681901 182.613333 
L 425.963421 181.368889 
L 426.681901 180.124444 
L 425.244941 180.124444 
L 424.52646 178.88 
L 425.244941 177.635556 
L 426.681901 177.635556 
L 425.963421 176.391111 
L 426.681901 175.146667 
L 428.118862 175.146667 
L 428.837342 176.391111 
L 429.555823 175.146667 
L 430.992783 175.146667 
L 430.274303 173.902222 
L 430.992783 172.657778 
L 429.555823 172.657778 
L 428.837342 171.413333 
L 429.555823 170.168889 
L 430.992783 170.168889 
L 430.274303 168.924444 
L 430.992783 167.68 
L 429.555823 167.68 
L 428.837342 166.435556 
L 428.118862 167.68 
L 426.681901 167.68 
L 425.963421 166.435556 
L 426.681901 165.191111 
L 425.244941 165.191111 
L 424.52646 163.946667 
L 423.80798 165.191111 
L 422.371019 165.191111 
L 423.0895 166.435556 
L 422.371019 167.68 
L 420.934059 167.68 
L 420.215578 166.435556 
L 419.497098 167.68 
L 418.060137 167.68 
L 417.341657 166.435556 
L 418.060137 165.191111 
L 416.623177 165.191111 
L 415.904696 163.946667 
L 416.623177 162.702222 
L 418.060137 162.702222 
L 417.341657 161.457778 
L 418.060137 160.213333 
L 416.623177 160.213333 
L 415.904696 158.968889 
L 415.186216 160.213333 
L 413.749255 160.213333 
L 413.030775 158.968889 
L 413.749255 157.724444 
L 412.312295 157.724444 
L 411.593814 156.48 
L 410.875334 157.724444 
L 409.438373 157.724444 
L 410.156854 158.968889 
L 409.438373 160.213333 
L 408.001413 160.213333 
L 407.282932 158.968889 
L 406.564452 160.213333 
L 405.127491 160.213333 
L 405.845972 161.457778 
L 405.127491 162.702222 
L 406.564452 162.702222 
L 407.282932 163.946667 
L 406.564452 165.191111 
L 405.127491 165.191111 
L 405.845972 166.435556 
L 405.127491 167.68 
L 403.690531 167.68 
L 402.97205 166.435556 
L 402.25357 167.68 
L 400.816609 167.68 
L 400.098129 166.435556 
L 400.816609 165.191111 
L 399.379649 165.191111 
L 398.661168 163.946667 
L 397.942688 165.191111 
L 396.505727 165.191111 
L 397.224208 166.435556 
L 396.505727 167.68 
L 395.068767 167.68 
L 394.350286 166.435556 
L 393.631806 167.68 
L 392.194845 167.68 
L 392.913326 168.924444 
L 392.194845 170.168889 
L 393.631806 170.168889 
L 394.350286 171.413333 
L 393.631806 172.657778 
L 392.194845 172.657778 
L 392.913326 173.902222 
L 392.194845 175.146667 
L 393.631806 175.146667 
L 394.350286 176.391111 
L 395.068767 175.146667 
L 396.505727 175.146667 
L 397.224208 176.391111 
L 396.505727 177.635556 
L 397.942688 177.635556 
L 398.661168 178.88 
L 397.942688 180.124444 
L 396.505727 180.124444 
L 397.224208 181.368889 
L 396.505727 182.613333 
L 395.068767 182.613333 
L 394.350286 181.368889 
L 393.631806 182.613333 
L 392.194845 182.613333 
L 392.913326 183.857778 
L 392.194845 185.102222 
L 393.631806 185.102222 
L 394.350286 186.346667 
L 393.631806 187.591111 
L 392.194845 187.591111 
L 392.913326 188.835556 
L 392.194845 190.08 
L 390.757885 190.08 
L 390.039404 188.835556 
L 389.320924 190.08 
L 387.883963 190.08 
L 387.165483 188.835556 
L 387.883963 187.591111 
L 386.447003 187.591111 
L 385.728522 186.346667 
L 385.010042 187.591111 
L 383.573081 187.591111 
L 384.291562 188.835556 
L 383.573081 190.08 
L 382.136121 190.08 
L 381.41764 188.835556 
L 380.69916 190.08 
L 379.262199 190.08 
L 378.543719 188.835556 
L 379.262199 187.591111 
L 377.825239 187.591111 
L 377.106758 186.346667 
L 377.825239 185.102222 
L 379.262199 185.102222 
L 378.543719 183.857778 
L 379.262199 182.613333 
L 377.825239 182.613333 
L 377.106758 181.368889 
L 376.388278 182.613333 
L 374.951317 182.613333 
L 374.232837 181.368889 
L 374.951317 180.124444 
L 373.514357 180.124444 
L 372.795876 178.88 
L 372.077396 180.124444 
L 370.640435 180.124444 
L 371.358916 181.368889 
L 370.640435 182.613333 
L 369.203475 182.613333 
L 368.484994 181.368889 
L 367.766514 182.613333 
L 366.329553 182.613333 
L 367.048033 183.857778 
L 366.329553 185.102222 
L 367.766514 185.102222 
L 368.484994 186.346667 
L 367.766514 187.591111 
L 366.329553 187.591111 
L 367.048033 188.835556 
L 366.329553 190.08 
L 364.892592 190.08 
L 364.174112 188.835556 
L 363.455632 190.08 
L 362.018671 190.08 
L 361.300191 188.835556 
L 362.018671 187.591111 
L 360.58171 187.591111 
L 359.86323 186.346667 
L 359.14475 187.591111 
L 357.707789 187.591111 
L 358.426269 188.835556 
L 357.707789 190.08 
L 356.270828 190.08 
L 355.552348 188.835556 
L 354.833868 190.08 
L 353.396907 190.08 
L 352.678427 188.835556 
L 353.396907 187.591111 
L 351.959946 187.591111 
L 351.241466 186.346667 
L 351.959946 185.102222 
L 353.396907 185.102222 
L 352.678427 183.857778 
L 353.396907 182.613333 
L 351.959946 182.613333 
L 351.241466 181.368889 
L 350.522986 182.613333 
L 349.086025 182.613333 
L 348.367545 181.368889 
L 349.086025 180.124444 
L 347.649064 180.124444 
L 346.930584 178.88 
L 347.649064 177.635556 
L 349.086025 177.635556 
L 348.367545 176.391111 
L 349.086025 175.146667 
L 350.522986 175.146667 
L 351.241466 176.391111 
L 351.959946 175.146667 
L 353.396907 175.146667 
L 352.678427 173.902222 
L 353.396907 172.657778 
L 351.959946 172.657778 
L 351.241466 171.413333 
L 351.959946 170.168889 
L 353.396907 170.168889 
L 352.678427 168.924444 
L 353.396907 167.68 
L 351.959946 167.68 
L 351.241466 166.435556 
L 350.522986 167.68 
L 349.086025 167.68 
L 348.367545 166.435556 
L 349.086025 165.191111 
L 347.649064 165.191111 
L 346.930584 163.946667 
L 346.212104 165.191111 
L 344.775143 165.191111 
L 345.493623 166.435556 
L 344.775143 167.68 
L 343.338182 167.68 
L 342.619702 166.435556 
L 341.901222 167.68 
L 340.464261 167.68 
L 339.745781 166.435556 
L 340.464261 165.191111 
L 339.0273 165.191111 
L 338.30882 163.946667 
L 339.0273 162.702222 
L 340.464261 162.702222 
L 339.745781 161.457778 
L 340.464261 160.213333 
L 339.0273 160.213333 
L 338.30882 158.968889 
L 337.59034 160.213333 
L 336.153379 160.213333 
L 335.434899 158.968889 
L 336.153379 157.724444 
L 334.716418 157.724444 
L 333.997938 156.48 
L 334.716418 155.235556 
L 336.153379 155.235556 
L 335.434899 153.991111 
L 336.153379 152.746667 
L 337.59034 152.746667 
L 338.30882 153.991111 
L 339.0273 152.746667 
L 340.464261 152.746667 
L 339.745781 151.502222 
L 340.464261 150.257778 
L 339.0273 150.257778 
L 338.30882 149.013333 
L 339.0273 147.768889 
L 340.464261 147.768889 
L 339.745781 146.524444 
L 340.464261 145.28 
L 341.901222 145.28 
L 342.619702 146.524444 
L 343.338182 145.28 
L 344.775143 145.28 
L 345.493623 146.524444 
L 344.775143 147.768889 
L 346.212104 147.768889 
L 346.930584 149.013333 
L 347.649064 147.768889 
L 349.086025 147.768889 
L 348.367545 146.524444 
L 349.086025 145.28 
L 350.522986 145.28 
L 351.241466 146.524444 
L 351.959946 145.28 
L 353.396907 145.28 
L 352.678427 144.035556 
L 353.396907 142.791111 
L 351.959946 142.791111 
L 351.241466 141.546667 
L 351.959946 140.302222 
L 353.396907 140.302222 
L 352.678427 139.057778 
L 353.396907 137.813333 
L 351.959946 137.813333 
L 351.241466 136.568889 
L 350.522986 137.813333 
L 349.086025 137.813333 
L 348.367545 136.568889 
L 349.086025 135.324444 
L 347.649064 135.324444 
L 346.930584 134.08 
L 347.649064 132.835556 
L 349.086025 132.835556 
L 348.367545 131.591111 
L 349.086025 130.346667 
L 350.522986 130.346667 
L 351.241466 131.591111 
L 351.959946 130.346667 
L 353.396907 130.346667 
L 352.678427 129.102222 
L 353.396907 127.857778 
L 351.959946 127.857778 
L 351.241466 126.613333 
L 351.959946 125.368889 
L 353.396907 125.368889 
L 352.678427 124.124444 
L 353.396907 122.88 
L 351.959946 122.88 
L 351.241466 121.635556 
L 350.522986 122.88 
L 349.086025 122.88 
L 348.367545 121.635556 
L 349.086025 120.391111 
L 347.649064 120.391111 
L 346.930584 119.146667 
L 346.212104 120.391111 
L 344.775143 120.391111 
L 345.493623 121.635556 
L 344.775143 122.88 
L 343.338182 122.88 
L 342.619702 121.635556 
L 341.901222 122.88 
L 340.464261 122.88 
L 339.745781 121.635556 
L 340.464261 120.391111 
L 339.0273 120.391111 
L 338.30882 119.146667 
L 339.0273 117.902222 
L 340.464261 117.902222 
L 339.745781 116.657778 
L 340.464261 115.413333 
L 339.0273 115.413333 
L 338.30882 114.168889 
L 337.59034 115.413333 
L 336.153379 115.413333 
L 335.434899 114.168889 
L 336.153379 112.924444 
L 334.716418 112.924444 
L 333.997938 111.68 
L 333.279458 112.924444 
L 331.842497 112.924444 
L 332.560977 114.168889 
L 331.842497 115.413333 
L 330.405536 115.413333 
L 329.687056 114.168889 
L 328.968576 115.413333 
L 327.531615 115.413333 
L 328.250095 116.657778 
L 327.531615 117.902222 
L 328.968576 117.902222 
L 329.687056 119.146667 
L 328.968576 120.391111 
L 327.531615 120.391111 
L 328.250095 121.635556 
L 327.531615 122.88 
L 326.094654 122.88 
L 325.376174 121.635556 
L 324.657694 122.88 
L 323.220733 122.88 
L 322.502253 121.635556 
L 323.220733 120.391111 
L 321.783772 120.391111 
L 321.065292 119.146667 
L 320.346812 120.391111 
L 318.909851 120.391111 
L 319.628331 121.635556 
L 318.909851 122.88 
L 317.47289 122.88 
L 316.75441 121.635556 
L 316.03593 122.88 
L 314.598969 122.88 
L 313.880489 121.635556 
L 314.598969 120.391111 
L 313.162008 120.391111 
L 312.443528 119.146667 
L 313.162008 117.902222 
L 314.598969 117.902222 
L 313.880489 116.657778 
L 314.598969 115.413333 
L 313.162008 115.413333 
L 312.443528 114.168889 
L 311.725048 115.413333 
L 310.288087 115.413333 
L 309.569607 114.168889 
L 310.288087 112.924444 
L 308.851126 112.924444 
L 308.132646 111.68 
L 308.851126 110.435556 
L 310.288087 110.435556 
L 309.569607 109.191111 
L 310.288087 107.946667 
L 311.725048 107.946667 
L 312.443528 109.191111 
L 313.162008 107.946667 
L 314.598969 107.946667 
L 313.880489 106.702222 
L 314.598969 105.457778 
L 313.162008 105.457778 
L 312.443528 104.213333 
L 313.162008 102.968889 
L 314.598969 102.968889 
L 313.880489 101.724444 
L 314.598969 100.48 
L 313.162008 100.48 
L 312.443528 99.235556 
L 311.725048 100.48 
L 310.288087 100.48 
L 309.569607 99.235556 
L 310.288087 97.991111 
L 308.851126 97.991111 
L 308.132646 96.746667 
L 307.414166 97.991111 
L 305.977205 97.991111 
L 306.695685 99.235556 
L 305.977205 100.48 
L 304.540244 100.48 
L 303.821764 99.235556 
L 303.103284 100.48 
L 301.666323 100.48 
L 300.947843 99.235556 
L 301.666323 97.991111 
L 300.229362 97.991111 
L 299.510882 96.746667 
L 300.229362 95.502222 
L 301.666323 95.502222 
L 300.947843 94.257778 
L 301.666323 93.013333 
L 300.229362 93.013333 
L 299.510882 91.768889 
L 298.792402 93.013333 
L 297.355441 93.013333 
L 296.636961 91.768889 
L 297.355441 90.524444 
L 295.91848 90.524444 
z
" clip-path="url(#pbba4e82e91)" style="fill: #1f77b4"/>
   </g>
   <g id="matplotlib.axis_1">
    <g id="xtick_1">
     <g id="line2d_1">
      <defs>
       <path id="mbc5d778721" d="M 0 0 
L 0 3.5 
" style="stroke: #000000; stroke-width: 0.8"/>
      </defs>
      <g>
       <use xlink:href="#mbc5d778721" x="85.691134" y="512.64" style="stroke: #000000; stroke-width: 0.8"/>
      </g>
     </g>
     <g id="text_1">
      <!-- 6 -->
      <g transform="translate(78.320041 527.238438)scale(0.1 -0.1)">
       <defs>
        <path id="DejaVuSans-2212" d="M 678 2272 
L 4684 2272 
L 4684 1741 
L 678 1741 
L 678 2272 
z
" transform="scale(0.015625)"/>
        <path id="DejaVuSans-36" d="M 2113 2584 
Q 1688 2584 1439 2293 
Q 1191 2003 1191 1497 
Q 1191 994 1439 701 
Q 1688 409 2113 409 
Q 2538 409 2786 701 
Q 3034 994 3034 1497 
Q 3034 2003 2786 2293 
Q 2538 2584 2113 2584 
z
M 3366 4563 
L 3366 3988 
Q 3128 4100 2886 4159 
Q 2644 4219 2406 4219 
Q 1781 4219 1451 3797 
Q 1122 3375 1075 2522 
Q 1259 2794 1537 2939 
Q 1816 3084 2150 3084 
Q 2853 3084 3261 2657 
Q 3669 2231 3669 1497 
Q 3669 778 3244 343 
Q 2819 -91 2113 -91 
Q 1303 -91 875 529 
Q 447 1150 447 2328 
Q 447 3434 972 4092 
Q 1497 4750 2381 4750 
Q 2619 4750 2861 4703 
Q 3103 4656 3366 4563 
z
" transform="scale(0.015625)"/>
       </defs>
       <use xlink:href="#DejaVuSans-2212"/>
       <use xlink:href="#DejaVuSans-36" x="83.789062"/>
      </g>
     </g>
    </g>
    <g id="xtick_2">
     <g id="line2d_2">
      <g>
       <use xlink:href="#mbc5d778721" x="155.527423" y="512.64" style="stroke: #000000; stroke-width: 0.8"/>
      </g>
     </g>
     <g id="text_2">
      <!-- 4 -->
      <g transform="translate(148.156329 527.238438)scale(0.1 -0.1)">
       <defs>
        <path id="DejaVuSans-34" d="M 2419 4116 
L 825 1625 
L 2419 1625 
L 2419 4116 
z
M 2253 4666 
L 3047 4666 
L 3047 1625 
L 3713 1625 
L 3713 1100 
L 3047 1100 
L 3047 0 
L 2419 0 
L 2419 1100 
L 313 1100 
L 313 1709 
L 2253 4666 
z
" transform="scale(0.015625)"/>
       </defs>
       <use xlink:href="#DejaVuSans-2212"/>
       <use xlink:href="#DejaVuSans-34" x="83.789062"/>
      </g>
     </g>
    </g>
    <g id="xtick_3">
     <g id="line2d_3">
      <g>
       <use xlink:href="#mbc5d778721" x="225.363711" y="512.64" style="stroke: #000000; stroke-width: 0.8"/>
      </g>
     </g>
     <g id="text_3">
      <!-- 2 -->
      <g transform="translate(217.992618 527.238438)scale(0.1 -0.1)">
       <defs>
        <path id="DejaVuSans-32" d="M 1228 531 
L 3431 531 
L 3431 0 
L 469 0 
L 469 531 
Q 828 903 1448 1529 
Q 2069 2156 2228 2338 
Q 2531 2678 2651 2914 
Q 2772 3150 2772 3378 
Q 2772 3750 2511 3984 
Q 2250 4219 1831 4219 
Q 1534 4219 1204 4116 
Q 875 4013 500 3803 
L 500 4441 
Q 881 4594 1212 4672 
Q 1544 4750 1819 4750 
Q 2544 4750 2975 4387 
Q 3406 4025 3406 3419 
Q 3406 3131 3298 2873 
Q 3191 2616 2906 2266 
Q 2828 2175 2409 1742 
Q 1991 1309 1228 531 
z
" transform="scale(0.015625)"/>
       </defs>
       <use xlink:href="#DejaVuSans-2212"/>
       <use xlink:href="#DejaVuSans-32" x="83.789062"/>
      </g>
     </g>
    </g>
    <g id="xtick_4">
     <g id="line2d_4">
      <g>
       <use xlink:href="#mbc5d778721" x="295.2" y="512.64" style="stroke: #000000; stroke-width: 0.8"/>
      </g>
     </g>
     <g id="text_4">
      <!-- 0 -->
      <g transform="translate(292.01875 527.238438)scale(0.1 -0.1)">
       <defs>
        <path id="DejaVuSans-30" d="M 2034 4250 
Q 1547 4250 1301 3770 
Q 1056 3291 1056 2328 
Q 1056 1369 1301 889 
Q 1547 409 2034 409 
Q 2525 409 2770 889 
Q 3016 1369 3016 2328 
Q 3016 3291 2770 3770 
Q 2525 4250 2034 4250 
z
M 2034 4750 
Q 2819 4750 3233 4129 
Q 3647 3509 3647 2328 
Q 3647 1150 3233 529 
Q 2819 -91 2034 -91 
Q 1250 -91 836 529 
Q 422 1150 422 2328 
Q 422 3509 836 4129 
Q 1250 4750 2034 4750 
z
" transform="scale(0.015625)"/>
       </defs>
       <use xlink:href="#DejaVuSans-30"/>
      </g>
     </g>
    </g>
    <g id="xtick_5">
     <g id="line2d_5">
      <g>
       <use xlink:href="#mbc5d778721" x="365.036289" y="512.64" style="stroke: #000000; stroke-width: 0.8"/>
      </g>
     </g>
     <g id="text_5">
      <!-- 2 -->
      <g transform="translate(361.855039 527.238438)scale(0.1 -0.1)">
       <use xlink:href="#DejaVuSans-32"/>
      </g>
     </g>
    </g>
    <g id="xtick_6">
     <g id="line2d_6">
      <g>
       <use xlink:href="#mbc5d778721" x="434.872577" y="512.64" style="stroke: #000000; stroke-width: 0.8"/>
      </g>
     </g>
     <g id="text_6">
      <!-- 4 -->
      <g transform="translate(431.691327 527.238438)scale(0.1 -0.1)">
       <use xlink:href="#DejaVuSans-34"/>
      </g>
     </g>
    </g>
    <g id="xtick_7">
     <g id="line2d_7">
      <g>
       <use xlink:href="#mbc5d778721" x="504.708866" y="512.64" style="stroke: #000000; stroke-width: 0.8"/>
      </g>
     </g>
     <g id="text_7">
      <!-- 6 -->
      <g transform="translate(501.527616 527.238438)scale(0.1 -0.1)">
       <use xlink:href="#DejaVuSans-36"/>
      </g>
     </g>
    </g>
   </g>
   <g id="matplotlib.axis_2">
    <g id="ytick_1">
     <g id="line2d_8">
      <defs>
       <path id="m80e847e888" d="M 0 0 
L -3.5 0 
" style="stroke: #000000; stroke-width: 0.8"/>
      </defs>
      <g>
       <use xlink:href="#m80e847e888" x="72" y="500.388866" style="stroke: #000000; stroke-width: 0.8"/>
      </g>
     </g>
     <g id="text_8">
      <!-- 6 -->
      <g transform="translate(50.257812 504.188084)scale(0.1 -0.1)">
       <use xlink:href="#DejaVuSans-2212"/>
       <use xlink:href="#DejaVuSans-36" x="83.789062"/>
      </g>
     </g>
    </g>
    <g id="ytick_2">
     <g id="line2d_9">
      <g>
       <use xlink:href="#m80e847e888" x="72" y="430.552577" style="stroke: #000000; stroke-width: 0.8"/>
      </g>
     </g>
     <g id="text_9">
      <!-- 4 -->
      <g transform="translate(50.257812 434.351796)scale(0.1 -0.1)">
       <use xlink:href="#DejaVuSans-2212"/>
       <use xlink:href="#DejaVuSans-34" x="83.789062"/>
      </g>
     </g>
    </g>
    <g id="ytick_3">
     <g id="line2d_10">
      <g>
       <use xlink:href="#m80e847e888" x="72" y="360.716289" style="stroke: #000000; stroke-width: 0.8"/>
      </g>
     </g>
     <g id="text_10">
      <!-- 2 -->
      <g transform="translate(50.257812 364.515507)scale(0.1 -0.1)">
       <use xlink:href="#DejaVuSans-2212"/>
       <use xlink:href="#DejaVuSans-32" x="83.789062"/>
      </g>
     </g>
    </g>
    <g id="ytick_4">
     <g id="line2d_11">
      <g>
       <use xlink:href="#m80e847e888" x="72" y="290.88" style="stroke: #000000; stroke-width: 0.8"/>
      </g>
     </g>
     <g id="text_11">
      <!-- 0 -->
      <g transform="translate(58.6375 294.679219)scale(0.1 -0.1)">
       <use xlink:href="#DejaVuSans-30"/>
      </g>
     </g>
    </g>
    <g id="ytick_5">
     <g id="line2d_12">
      <g>
       <use xlink:href="#m80e847e888" x="72" y="221.043711" style="stroke: #000000; stroke-width: 0.8"/>
      </g>
     </g>
     <g id="text_12">
      <!-- 2 -->
      <g transform="translate(58.6375 224.84293)scale(0.1 -0.1)">
       <use xlink:href="#DejaVuSans-32"/>
      </g>
     </g>
    </g>
    <g id="ytick_6">
     <g id="line2d_13">
      <g>
       <use xlink:href="#m80e847e888" x="72" y="151.207423" style="stroke: #000000; stroke-width: 0.8"/>
      </g>
     </g>
     <g id="text_13">
      <!-- 4 -->
      <g transform="translate(58.6375 155.006642)scale(0.1 -0.1)">
       <use xlink:href="#DejaVuSans-34"/>
      </g>
     </g>
    </g>
    <g id="ytick_7">
     <g id="line2d_14">
      <g>
       <use xlink:href="#m80e847e888" x="72" y="81.371134" style="stroke: #000000; stroke-width: 0.8"/>
      </g>
     </g>
     <g id="text_14">
      <!-- 6 -->
      <g transform="translate(58.6375 85.170353)scale(0.1 -0.1)">
       <use xlink:href="#DejaVuSans-36"/>
      </g>
     </g>
    </g>
   </g>
   <g id="patch_4">
    <path d="M 72 512.64 
L 72 69.12 
" style="fill: none; stroke: #000000; stroke-width: 0.8; stroke-linejoin: miter; stroke-linecap: square"/>
   </g>
   <g id="patch_5">
    <path d="M 518.4 512.64 
L 518.4 69.12 
" style="fill: none; stroke: #000000; stroke-width: 0.8; stroke-linejoin: miter; stroke-linecap: square"/>
   </g>
   <g id="patch_6">
    <path d="M 72 512.64 
L 518.4 512.64 
" style="fill: none; stroke: #000000; stroke-width: 0.8; stroke-linejoin: miter; stroke-linecap: square"/>
   </g>
   <g id="patch_7">
    <path d="M 72 69.12 
L 518.4 69.12 
" style="fill: none; stroke: #000000; stroke-width: 0.8; stroke-linejoin: miter; stroke-linecap: square"/>
   </g>
  </g>
 </g>
 <defs>
  <clipPath id="pbba4e82e91">
   <rect x="72" y="69.12" width="446.4" height="443.52"/>
  </clipPath>
 </defs>
</svg>
